<svg width="13" height="16" viewBox="0 0 13 16" fill="none" xmlns="http://www.w3.org/2000/svg">
<path d="M4.79894 15.2293C2.6501 15.2169 0.87262 10.8304 0.87262 8.59643C0.87262 4.94729 3.6101 4.14839 4.6651 4.14839C5.14055 4.14839 5.64823 4.3351 6.09601 4.50033C6.40914 4.61558 6.73298 4.73455 6.91309 4.73455C7.0209 4.73455 7.27495 4.63334 7.49925 4.54454C7.9776 4.35411 8.57284 4.11743 9.26598 4.11743C9.26722 4.11743 9.26889 4.11743 9.2701 4.11743C9.78768 4.11743 11.357 4.23102 12.3005 5.64788L12.5215 5.97999L12.2034 6.22C11.749 6.56285 10.9199 7.18826 10.9199 8.4271C10.9199 9.89435 11.8589 10.4586 12.31 10.73C12.5091 10.8498 12.7152 10.9733 12.7152 11.2435C12.7152 11.4199 11.3074 15.2074 9.26308 15.2074C8.76285 15.2074 8.40925 15.057 8.09736 14.9244C7.78178 14.7902 7.50954 14.6745 7.0597 14.6745C6.83168 14.6745 6.54334 14.7823 6.23808 14.8968C5.82092 15.0525 5.34875 15.2293 4.81298 15.2293H4.79894Z" fill="white"/>
<path d="M9.48257 0.79126C9.53581 2.71098 8.16291 4.04279 6.79162 3.95926C6.56565 2.42726 8.16274 0.79126 9.48257 0.79126Z" fill="white"/>
</svg>
