<svg width="1135" height="368" viewBox="0 0 1135 368" fill="none" xmlns="http://www.w3.org/2000/svg">
<path opacity="0.2" d="M1134.62 18.5341C1134.62 8.5666 1126.54 0.486328 1116.57 0.486328H195.23C130.94 0.486328 78.8224 52.604 78.8224 116.894V349.71C78.8224 359.678 86.9026 367.758 96.8701 367.758H1116.57C1126.54 367.758 1134.62 359.678 1134.62 349.71V18.5341Z" fill="#DFD7F9"/>
<g opacity="0.1">
<mask id="mask0_37_79" style="mask-type:alpha" maskUnits="userSpaceOnUse" x="896" y="0" width="239" height="318">
<path d="M896.837 0.937522H1112.96C1124.67 0.937522 1134.17 10.4318 1134.17 22.1436V317.244H941.505C916.836 317.244 896.837 297.245 896.837 272.576V0.937522Z" fill="url(#paint0_linear_37_79)" stroke="#6246E5" stroke-width="0.902388"/>
</mask>
<g mask="url(#mask0_37_79)">
<path d="M1194.91 161.4C1194.91 207.153 1157.82 244.243 1112.07 244.243C1066.32 244.243 1029.23 207.153 1029.23 161.4C1029.23 115.648 1066.32 78.5581 1112.07 78.5581C1157.82 78.5581 1194.91 115.648 1194.91 161.4Z" stroke="#6246E5" stroke-width="0.902388"/>
<circle cx="1105.49" cy="152.632" r="92.7059" stroke="#6246E5" stroke-width="0.902388"/>
<circle cx="1100.01" cy="145.509" r="101.474" stroke="#6246E5" stroke-width="0.902388"/>
<circle cx="1094.53" cy="135.097" r="109.145" stroke="#6246E5" stroke-width="0.902388"/>
<circle cx="1089.33" cy="124.959" r="116.543" stroke="#6246E5" stroke-width="0.902388"/>
<circle cx="1080.56" cy="113.452" r="128.051" stroke="#6246E5" stroke-width="0.902388"/>
</g>
</g>
<g opacity="0.1">
<mask id="mask1_37_79" style="mask-type:alpha" maskUnits="userSpaceOnUse" x="0" y="41" width="434" height="327">
<rect x="433.01" y="42.4473" width="324.86" height="432.244" transform="rotate(90 433.01 42.4473)" fill="url(#paint1_linear_37_79)" stroke="#6246E5" stroke-width="0.902388"/>
</mask>
<g mask="url(#mask1_37_79)">
<path d="M213.734 451.608C151.169 451.608 100.449 400.817 100.449 338.162C100.449 275.507 151.169 224.716 213.734 224.716C276.299 224.716 327.019 275.507 327.019 338.162C327.019 400.817 276.299 451.608 213.734 451.608Z" stroke="#6246E5" stroke-width="0.902388"/>
<path d="M225.706 456.104C155.703 456.104 98.9524 399.274 98.9524 329.17C98.9524 259.065 155.703 202.236 225.706 202.236C295.71 202.236 352.461 259.065 352.461 329.17C352.461 399.274 295.71 456.104 225.706 456.104Z" stroke="#6246E5" stroke-width="0.902388"/>
<path d="M235.434 460.6C158.818 460.6 96.7075 398.402 96.7075 321.677C96.7075 244.951 158.818 182.753 235.434 182.753C312.05 182.753 374.16 244.951 374.16 321.677C374.16 398.403 312.05 460.6 235.434 460.6Z" stroke="#6246E5" stroke-width="0.902388"/>
<path d="M249.651 463.597C167.25 463.597 100.449 396.703 100.449 314.184C100.449 231.664 167.25 164.77 249.651 164.77C332.053 164.77 398.853 231.664 398.853 314.184C398.853 396.703 332.053 463.597 249.651 463.597Z" stroke="#6246E5" stroke-width="0.902388"/>
<path d="M263.494 466.595C175.514 466.595 104.19 395.171 104.19 307.065C104.19 218.958 175.514 147.535 263.494 147.535C351.474 147.535 422.798 218.958 422.798 307.065C422.798 395.171 351.474 466.595 263.494 466.595Z" stroke="#6246E5" stroke-width="0.902388"/>
<path d="M279.208 470.341C182.549 470.341 104.19 391.873 104.19 295.076C104.19 198.279 182.549 119.81 279.208 119.81C375.866 119.81 454.225 198.279 454.225 295.076C454.225 391.873 375.866 470.341 279.208 470.341Z" stroke="#6246E5" stroke-width="0.902388"/>
</g>
</g>
<defs>
<linearGradient id="paint0_linear_37_79" x1="1065.35" y1="9.38598" x2="901.107" y2="320.19" gradientUnits="userSpaceOnUse">
<stop stop-color="#747DEF"/>
<stop offset="1" stop-color="#5E3BE1"/>
</linearGradient>
<linearGradient id="paint1_linear_37_79" x1="664.504" y1="54.1485" x2="440.413" y2="478.811" gradientUnits="userSpaceOnUse">
<stop stop-color="#747DEF"/>
<stop offset="1" stop-color="#5E3BE1"/>
</linearGradient>
</defs>
</svg>
