<svg width="349" height="11" viewBox="0 0 349 11" fill="none" xmlns="http://www.w3.org/2000/svg">
<mask id="mask0_37_424" style="mask-type:alpha" maskUnits="userSpaceOnUse" x="0" y="0" width="349" height="11">
<rect x="0.845413" y="0.476318" width="347.419" height="10.0798" fill="#C4C4C4"/>
</mask>
<g mask="url(#mask0_37_424)">
<path d="M53.0288 -1.65554L53.8779 -1.7884L52.2256 -1.97889L53.0177 -2.11833C53.8119 -2.11705 54.841 -1.90812 55.4009 -2.01913C55.4694 -2.12662 54.6045 -2.16112 54.3838 -2.24675C54.1885 -2.33453 54.0292 -2.42174 53.9076 -2.50733C54.3401 -2.5064 54.8157 -2.4857 55.306 -2.44644C55.9655 -2.38231 56.6123 -2.35113 57.1751 -2.35635C58.3261 -2.33903 59.4381 -2.35631 60.6894 -2.3525L60.2731 -2.61119L61.8858 -2.55067C62.0567 -2.53096 62.2605 -2.56265 62.4284 -2.53828C63.8261 -2.332 64.4175 -2.4444 65.0884 -2.53761C65.226 -2.56172 65.3917 -2.57973 65.5812 -2.59115C67.4456 -2.54174 69.1269 -2.25261 70.806 -2.10417C71.122 -2.06627 71.4251 -2.01763 71.6939 -1.96168C72.2779 -1.85292 72.9275 -1.76413 73.5833 -1.70342C74.2392 -1.64271 74.8802 -1.61203 75.4479 -1.61417C76.7033 -1.61657 78.1216 -1.54463 79.5656 -1.40532C79.995 -1.35943 80.4246 -1.32916 80.8272 -1.31643C81.2298 -1.30371 81.5965 -1.3088 81.9037 -1.3314L82.88 -1.18373C83.3032 -1.24365 83.8398 -1.27652 84.4572 -1.28036C85.0747 -1.28419 85.7601 -1.25891 86.472 -1.20604C87.2305 -1.14868 88.001 -1.11002 88.788 -1.04938C90.4138 -0.933457 91.996 -0.862561 93.4856 -0.838895C95.7038 -0.768763 97.8711 -0.714539 100.109 -0.627103C101.509 -0.584899 102.873 -0.561686 104.193 -0.557586C105.774 -0.541078 107.484 -0.461162 109.241 -0.321696V-0.321696C109.158 -0.190844 108.387 -0.229501 107.87 -0.23393C106.202 -0.255678 104.495 -0.312036 102.779 -0.354373C102.006 -0.370898 101.254 -0.377159 100.528 -0.373105C99.3141 -0.37853 98.0344 -0.413396 96.7107 -0.477107C94.6198 -0.547211 92.5956 -0.580909 90.659 -0.577859C90.5072 -0.572676 90.368 -0.563492 90.244 -0.550459C90.2181 -0.539172 90.213 -0.524937 90.2291 -0.509124C90.2453 -0.493311 90.2822 -0.476442 90.3362 -0.46014C90.3903 -0.443838 90.4597 -0.42865 90.5379 -0.416021C90.6161 -0.403392 90.7004 -0.393746 90.7828 -0.388014C91.552 -0.299337 92.3781 -0.204094 93.1035 -0.190695C93.1315 -0.189694 93.1614 -0.187408 93.1909 -0.184C93.2205 -0.180591 93.249 -0.176147 93.2744 -0.17099C94.8982 0.016219 96.2334 -0.0154612 97.4983 0.0149967C99.5985 0.0973152 101.623 0.135766 103.541 0.129769C103.831 0.130177 104.144 0.140878 104.469 0.161485C106.478 0.24502 108.357 0.254364 110.017 0.189092C110.7 0.172555 111.335 0.135433 112.07 0.134812C112.522 0.132257 112.916 0.108568 113.227 0.0651614C113.538 0.0217553 113.761 -0.0404701 113.882 -0.117772C114.192 -0.0770732 114.506 -0.0408022 114.822 -0.00939234C115.01 0.00856744 115.191 0.0133379 115.328 0.00393974C115.464 -0.00545839 115.546 -0.028322 115.557 -0.060027C115.614 -0.148819 115.184 -0.19341 114.81 -0.231434C115.036 -0.250476 115.289 -0.261679 115.565 -0.264771C117.121 -0.28506 118.79 -0.261114 120.535 -0.193459C121.89 -0.112477 122.972 -0.178391 124.398 -0.0641897C124.569 -0.0444836 124.709 -0.0734073 124.867 -0.0803518C125.277 -0.116923 125.788 -0.125143 126.355 -0.104293C126.923 -0.0834429 127.53 -0.0341516 128.124 0.0393063C128.863 -0.161383 130.46 0.0678867 131.64 0.0884915C132.003 0.190552 131.586 0.172609 131.568 0.200649C131.55 0.228689 131.568 0.200643 131.426 0.184221C130.248 0.328757 128.635 0.360273 126.812 0.274341C126.475 0.274697 126.154 0.281282 125.851 0.294031C125.394 0.312076 124.878 0.310274 124.326 0.288704C123.723 0.272863 123.169 0.280387 122.691 0.310912C122.416 0.310415 122.183 0.325707 122.015 0.35538C121.846 0.385053 121.747 0.428146 121.727 0.480652C121.91 0.52113 122.114 0.558168 122.33 0.590296C123.456 0.717148 124.579 0.769655 125.477 0.737487C127.042 0.682061 128.903 0.736148 130.566 0.717226C131.691 0.709561 132.887 0.731395 134.133 0.782322C134.133 0.782322 134.101 0.833727 134.098 0.8384C134.245 0.860657 134.4 0.878515 134.554 0.890951C134.554 0.890951 134.554 0.890952 134.568 0.867585C134.5 0.845146 134.408 0.824037 134.301 0.806701L133.931 0.764003C134.183 0.752892 134.418 0.719809 134.68 0.740022C135.233 0.777575 135.761 0.793428 136.233 0.786641C136.705 0.779853 137.111 0.750561 137.427 0.700523C137.986 0.636393 138.682 0.607229 139.469 0.614915C140.072 0.607914 140.654 0.592866 141.21 0.569847C141.21 0.569847 141.246 0.513773 141.51 0.483969C141.26 0.447208 141 0.417191 140.74 0.395294C139.613 0.340588 138.483 0.290554 137.375 0.253151C136.967 0.249111 136.584 0.255378 136.232 0.271829C135.258 0.291081 134.163 0.263757 133.011 0.191451C133.011 0.191451 132.783 0.165177 132.669 0.15204C132.992 0.0287701 134.106 0.152178 134.557 0.0686961C134.831 0.0702158 135.314 0.0807136 135.297 0.0587361C135.26 0.0294087 135.255 0.00216353 135.284 -0.0210444C135.313 -0.0442524 135.375 -0.0628497 135.465 -0.0755007C135.555 -0.0881516 135.671 -0.0945468 135.804 -0.0942218C135.938 -0.0938967 136.086 -0.086858 136.238 -0.0736191C137.506 -0.00199912 138.7 0.0179176 139.748 -0.0150889C140.145 -0.0144516 140.59 0.00677559 140.984 0.0120861C141.226 0.0184825 141.446 0.0149248 141.633 0.00161012C142.586 -0.0964514 143.867 -0.103612 145.285 -0.0187985C145.971 0.0116942 146.611 0.0157719 147.173 -0.00677383C147.574 -0.0108099 147.743 0.0589094 148.028 0.091753L149.238 0.160988L147.684 0.24774C148.016 0.44655 148.28 0.512105 148.823 0.524491C149.614 0.543195 150.385 0.551645 151.131 0.549788C151.682 0.548154 152.138 0.505339 152.884 0.581386C153.016 0.593789 153.143 0.597804 153.244 0.592756C154.118 0.525243 155.171 0.509749 156.331 0.547331C156.931 0.420907 157.954 0.543824 158.9 0.642861C159.205 0.547631 158.652 0.503917 158.322 0.445811C159.113 0.451759 159.911 0.448363 160.727 0.462268C160.973 0.457206 161.254 0.465865 161.548 0.487565C161.842 0.509264 162.141 0.543409 162.421 0.587331C162.558 0.615711 162.723 0.63707 162.882 0.646973C163.041 0.656876 163.181 0.654566 163.274 0.640521C163.698 0.599099 164.377 0.63725 164.728 0.567282C164.852 0.55119 165.03 0.548944 165.23 0.560935C165.43 0.572927 165.638 0.59838 165.817 0.632732V0.632732C165.621 0.64345 165.446 0.660328 165.296 0.682994C164.76 0.756622 164.957 0.879648 165.638 1.05851C166.684 1.04867 167.753 1.05146 168.722 1.01775C169.262 0.987494 169.924 0.996953 170.634 1.04507C171.343 1.09319 172.072 1.17805 172.738 1.29013C172.979 1.33322 173.254 1.36307 173.507 1.37374C173.761 1.38442 173.976 1.37514 174.108 1.34774C174.19 1.31605 174.216 1.27595 174.182 1.23091L173.499 1.15208C173.499 1.15208 173.525 1.11002 173.531 1.10068L174.514 1.09361C175.034 1.09337 175.577 1.10576 176.068 1.10223C176.791 1.07875 177.615 1.09184 178.49 1.14066C179.298 1.19073 180.092 1.22858 180.865 1.25386C181.613 1.27989 182.155 1.19691 182.866 1.18366C183.405 1.17367 183.997 1.18435 184.62 1.21527C185.697 1.27011 186.685 1.27021 187.494 1.21556C188.438 1.51 188.897 1.55787 189.773 1.47831L190.185 1.45558L190.298 1.51873L190.613 1.50485C191.202 1.49248 191.79 1.48011 192.405 1.4757C193.259 1.50303 194.182 1.57654 195.082 1.68906C195.253 1.70877 195.486 1.77572 195.636 1.82814C195.786 1.88056 196.113 2.0387 196.354 2.14164C196.092 2.21679 195.801 2.28865 195.593 2.37504C195.573 2.3898 195.575 2.4074 195.6 2.42642C195.624 2.44544 195.671 2.46537 195.736 2.48458C195.801 2.50379 195.883 2.52176 195.974 2.53705C196.066 2.55233 196.165 2.56451 196.263 2.57259C196.454 2.59001 196.643 2.60163 196.822 2.60696C197.702 2.61615 198.545 2.60932 199.343 2.58653C199.634 2.55439 200.032 2.55134 200.475 2.57786C200.918 2.60439 201.38 2.65897 201.787 2.73295C202.831 2.68854 204.043 2.70166 205.341 2.77141C206.713 2.72899 208.371 2.81477 209.653 2.72183C209.624 2.76856 209.756 2.84902 209.94 2.89538C210.232 2.96579 210.563 3.03105 210.918 3.08838L213.63 3.20033C213.731 3.25789 213.858 3.31616 214.008 3.37439C214.111 3.42037 214.291 3.46538 214.509 3.49985C214.726 3.53433 214.966 3.55557 215.175 3.55907C215.715 3.57612 216.167 3.53798 216.81 3.63222C215.82 3.72129 214.483 3.70946 213.04 3.59882C211.684 3.51468 210.379 3.47262 209.174 3.47422C208.777 3.47359 208.254 3.4785 208.13 3.5294C207.855 3.67326 207.136 3.65052 206.296 3.62398C205.637 3.59493 205.035 3.59819 204.539 3.63349C204.043 3.66879 203.669 3.73513 203.445 3.82703C203.389 3.91583 203.524 3.99162 204.103 4.04328L206.509 4.25046C206.864 4.22383 207.2 4.1923 207.517 4.156C208.051 4.1078 208.71 4.09456 209.444 4.11734C210.177 4.14011 210.965 4.19827 211.745 4.2873C212.144 4.33328 212.543 4.37926 212.832 4.35741C213.086 4.33231 213.32 4.30227 213.531 4.26749C213.574 4.24418 213.591 4.21735 213.582 4.18804C213.736 4.20167 213.889 4.21939 214.038 4.24059C215.226 4.48792 216.146 4.48364 216.982 4.41948C217.208 4.40041 217.38 4.3701 217.61 4.34636C217.839 4.32262 217.919 4.2918 218.128 4.30077C219.789 4.38189 220.267 4.11097 221.667 4.12185C221.735 4.11127 221.777 4.09544 221.79 4.07584C221.802 4.05624 221.784 4.0335 221.738 4.00969C221.639 3.9882 221.525 3.96971 221.405 3.95594C221.286 3.94217 221.165 3.93354 221.054 3.93087C220.41 3.8961 219.841 3.90676 219.445 3.96103C219.164 3.9832 218.867 4.00087 218.555 4.01394L217.154 3.62161C218.511 3.65757 219.796 3.65733 220.976 3.6209C221.234 3.60045 221.67 3.63569 222.033 3.64239L224.701 3.67906C225.249 3.6821 225.717 3.6206 226.481 3.76397C226.481 3.76397 226.987 3.78709 227.121 3.76751C227.256 3.74793 227.853 3.62618 228.21 3.54687C228.623 3.56948 229.196 3.6305 229.454 3.61004C229.904 3.55979 230.294 3.49538 230.616 3.41795L232.227 3.52848C232.226 3.62668 232.167 3.71905 232.052 3.80421C231.926 3.88633 231.931 3.98491 232.064 4.09189C232.198 4.19886 232.458 4.31119 232.822 4.41971L234.413 4.99443C234.673 5.03292 234.95 5.05882 235.206 5.06863C235.462 5.07844 235.686 5.07168 235.846 5.04926C236.531 4.98271 237.298 4.93068 237.982 4.86413C238.865 4.96594 238.638 5.13039 239.28 5.27464L241.36 5.5144C241.677 5.73657 242 5.9494 241.036 6.02378C240.844 6.03679 240.973 6.12192 240.798 6.15691C241.548 6.32364 242.373 6.37355 243.133 6.47625C243.433 6.55011 243.683 6.62829 243.873 6.70701C244.081 6.82555 244.503 6.94664 245.047 7.04413C245.591 7.14162 246.215 7.20769 246.782 7.22807C247.735 7.29048 248.71 7.38422 249.664 7.5051C249.99 7.54713 250.325 7.57775 250.646 7.5949C250.968 7.61205 251.268 7.61533 251.527 7.60453C252.45 7.5855 253.232 7.52005 253.821 7.41245C254.403 7.32113 255.188 7.27712 256.104 7.28441C257.671 7.46505 257.987 7.73724 258.935 7.97698L257.297 8.00386C257.238 8.09733 257.346 8.21517 256.675 8.21302C256.003 8.21086 256.344 8.30029 256.562 8.3906C256.638 8.43603 256.788 8.48276 256.986 8.52288C257.183 8.56301 257.416 8.59405 257.645 8.61077L259.039 8.72636C259.533 8.77035 260.012 8.78914 260.422 8.78065C260.832 8.77217 261.158 8.73674 261.363 8.67827C261.599 8.62275 261.925 8.58518 262.32 8.5679C262.824 8.5226 263.238 8.45523 263.548 8.36835L265.516 8.49494C265.6 8.40762 265.871 8.3464 266.282 8.32162C266.693 8.29684 267.22 8.31002 267.774 8.35893L269.101 8.43664C270.576 8.52141 270.899 8.4935 271.331 8.24734L269.562 7.80764C269.819 7.69182 270.068 7.59002 270.316 7.48822C269.875 7.34336 269.287 7.20634 268.612 7.09109C267.981 6.96725 267.333 6.84731 266.67 6.73173C265.95 6.61362 265.189 6.51092 264.296 6.37778C264.14 6.33471 263.913 6.25841 263.623 6.1849C263.333 6.11346 263.031 6.04343 262.717 5.97509C262.777 5.88163 262.83 5.79751 262.716 5.68901C263.266 5.72363 263.835 5.78418 264.371 5.8652C264.906 5.94622 265.392 6.04516 265.784 6.15311C265.85 6.17225 265.931 6.19023 266.021 6.20583C266.111 6.22144 266.209 6.2343 266.308 6.24355C267.274 6.30987 267.737 6.44843 268.209 6.61832C268.528 6.70516 268.938 6.78229 269.384 6.83899C270.239 6.93752 271.075 7.0641 271.893 7.17336C272.143 7.20977 272.403 7.23974 272.662 7.26204C273.516 7.33292 274.376 7.43204 275.197 7.55435C275.465 7.58544 275.723 7.62657 275.948 7.67432C276.173 7.72207 276.359 7.77505 276.49 7.82882C276.287 7.88774 276.177 7.96212 276.168 8.04746C276.132 8.10354 276.732 8.21786 277.016 8.30072C277.299 8.38358 276.743 8.34454 276.554 8.35287C275.78 8.3689 275.636 8.40249 276.1 8.5864C276.255 8.64423 276.358 8.70209 276.402 8.75639C276.446 8.81069 276.431 8.86027 276.358 8.90205C276.247 9.07496 275.912 9.21693 275.682 9.38605C276.04 9.49745 276.637 9.61643 276.702 9.75436C276.733 9.78496 276.799 9.81738 276.895 9.84927C276.991 9.88117 277.115 9.91173 277.257 9.93878C277.632 9.99715 277.973 10.067 278.253 10.1428C278.534 10.2186 278.746 10.2984 278.875 10.3761C278.916 10.4082 279.018 10.4422 279.158 10.4714C279.298 10.5006 279.467 10.5228 279.631 10.5335C279.826 10.5466 280.001 10.5449 280.12 10.5286C280.238 10.5124 280.291 10.4829 280.267 10.4463C280.272 10.3775 280.246 10.3058 280.19 10.2317C280.222 10.1803 280.255 10.1289 280.126 10.0438C280.71 10.0749 281.323 10.1371 281.898 10.2238C282.474 10.3105 282.99 10.4183 283.39 10.5355C283.833 10.6568 284.241 10.7841 284.732 10.926C284.631 11.0849 284.631 11.0849 285.675 11.3658L291.215 11.5028L292.35 11.6888C293.409 11.851 293.66 11.8399 294.325 11.7561L294.773 11.6772C295.713 11.7856 296.796 11.9104 297.384 11.7074C297.575 11.8397 297.699 11.8842 297.656 11.9043C297.375 12.0996 296.888 12.2654 296.212 12.3949C296.04 12.4253 295.919 12.4715 295.718 12.4985C295.071 12.651 294.921 12.8868 295.298 13.1574C295.486 13.2772 295.758 13.3999 296.106 13.5215C295.597 13.6902 294.921 13.83 294.099 13.9371C293.401 14.02 292.826 14.131 292.39 14.2669C292 14.4039 291.414 14.5069 290.668 14.57C290.29 14.5968 290.014 14.6497 289.867 14.7234C289.824 14.923 289.924 15.1367 290.166 15.3598C290.211 15.4276 290.34 15.5009 290.543 15.5739C290.746 15.6469 291.017 15.7176 291.335 15.7805C291.335 15.7805 291.488 15.8282 291.562 15.8568C291.623 16.0985 291.393 16.3115 290.889 16.4815C290.806 16.5297 290.637 16.5646 290.399 16.5823C290.162 16.6 289.865 16.5998 289.54 16.5819C288.855 16.5531 288.215 16.5495 287.553 16.5334C286.839 16.5105 286.21 16.5285 285.733 16.5856C285.255 16.6426 284.946 16.7366 284.839 16.8575C284.832 16.8918 284.811 16.9246 284.777 16.9557C284.756 16.9717 284.745 16.9889 284.744 17.0071L286.265 17.4032L284.544 17.5609C284.443 17.7198 285.269 17.8151 285.683 17.9331L285.427 17.9989C285.098 18.0361 284.654 17.9649 284.252 17.9236L283.853 17.8776L283.806 17.9523C283.557 18.0541 282.652 17.9397 282.298 18.0143C281.945 18.089 282.197 18.1732 282.727 18.2543C283.095 18.3146 283.49 18.3627 283.882 18.3949C284.275 18.4271 284.655 18.4427 284.993 18.4404C285.195 18.4324 285.363 18.4142 285.486 18.3869C286.201 18.2704 286.99 18.1703 287.848 18.0873C288.506 18.0127 289.33 17.981 290.262 17.9944C290.535 17.9888 290.865 18.0064 291.193 18.0443C291.522 18.0821 291.827 18.1377 292.057 18.2013V18.2013L292.539 18.2118C292.539 18.2118 292.803 18.2773 292.766 18.2881C292.582 18.4823 292.796 18.7197 293.374 18.9652V18.9652L292.871 18.9874C292.152 18.9647 292.608 19.1126 292.5 19.1855C291.989 19.1717 291.325 19.1102 291.083 19.2026L290.72 19.1959L290.862 19.2124L291.035 19.182L291.711 19.3202C291.391 19.3435 291.158 19.3719 290.875 19.3844C290.719 19.3953 290.594 19.4145 290.509 19.4409C290.424 19.4673 290.38 19.5003 290.38 19.538C290.381 19.5959 290.296 19.6447 290.135 19.6797C289.973 19.7146 289.74 19.7346 289.458 19.7376C289.12 19.7389 288.927 19.8019 288.73 19.8243L289.589 20.2042C289.589 20.2042 289.161 20.1549 289.394 20.2219L289.424 20.1752L289.944 20.2703C290.319 20.3536 290.582 20.3739 290.803 20.3141C291.025 20.2544 290.974 20.3338 291.08 20.311C291.042 20.3717 290.801 20.4142 290.594 20.4505C290.355 20.4791 290.085 20.5001 289.789 20.5133C290.323 20.7804 290.348 20.7884 289.569 20.8591C288.79 20.9298 289.059 21.0361 288.407 21.0512C287.755 21.0664 288.497 21.2471 288.933 21.2824C289.256 21.3055 289.586 21.3416 289.9 21.3882C290.213 21.4347 290.503 21.4906 290.749 21.5519L290.618 21.7575C290.426 21.7405 290.234 21.7184 290.048 21.6918C289.417 21.5789 288.842 21.4726 288.281 21.5382L288.548 21.6945L286.588 21.6039C286.638 21.721 286.937 21.8544 287.421 21.9759V21.9759C287.348 22.0426 287.303 22.1129 287.287 22.1862C287.254 22.2376 287.061 22.2052 286.935 22.2108C286.486 22.2194 286.118 22.2542 285.862 22.3122C285.606 22.3702 285.472 22.4496 285.469 22.5435C285.419 22.6229 286.109 22.7878 286.541 22.7823C287.618 22.7982 288.783 22.8593 289.973 22.9624C290.699 22.9758 290.801 22.7669 291.995 22.9095C292.018 23.0059 291.865 23.084 291.559 23.132C291.253 23.1799 290.809 23.1951 290.296 23.1752C290.588 23.3894 292.204 23.4453 292.275 23.6692C291.873 23.6534 291.443 23.6162 291.027 23.5612C290.612 23.5063 290.225 23.4355 289.906 23.3559C289.837 23.3363 289.751 23.3182 289.655 23.3034C289.559 23.2885 289.456 23.2773 289.356 23.2708C289.257 23.2643 289.164 23.2628 289.085 23.2663C289.007 23.2698 288.946 23.2783 288.908 23.291C289.131 23.372 289.378 23.4656 289.658 23.5531C289.939 23.6406 290.007 23.6785 290.209 23.6968C291.719 23.8709 292.437 24.1844 293.743 24.3902C294.085 24.4296 294.127 24.5549 293.83 24.5407C293.548 24.5266 293.293 24.5284 293.092 24.5461C292.892 24.5637 292.755 24.5965 292.696 24.6408C292.477 24.6923 292.205 24.7334 291.885 24.7629C293.224 25.0846 294.822 25.3689 296.527 25.589C296.85 25.6325 297.186 25.659 297.488 25.6647C298.44 25.665 299.449 25.6905 300.497 25.7407C300.869 25.7544 301.212 25.7532 301.509 25.737C302.481 25.6986 303.253 25.7826 303.959 26.0194L305.126 26.3948C305.088 26.4556 304.892 26.5233 304.741 26.6162L305.653 26.8167L312.613 26.355L314.01 26.802L316.014 26.7772C316.168 26.7901 316.322 26.8079 316.47 26.8297C316.875 26.9617 317.192 27.0885 317.632 27.2145C318.071 27.3404 318.856 27.3557 319.404 27.5041C319.952 27.6525 320.5 27.6556 321.178 27.7437C321.242 27.8586 321.176 27.962 320.985 28.0475C320.922 28.1456 320.578 28.2063 320.518 28.2997C320.525 28.3942 320.397 28.4744 320.146 28.5331C319.895 28.5917 319.529 28.627 319.081 28.6357C317.827 28.8368 316.315 28.98 314.59 29.061C314.439 29.0669 314.313 29.0805 314.221 29.101C314.129 29.1214 314.073 29.1483 314.056 29.18C314.058 29.2717 313.943 29.3509 313.719 29.4119C313.495 29.4728 313.168 29.514 312.761 29.5324C312.653 29.536 312.571 29.5476 312.526 29.5655C312.372 29.577 312.26 29.5991 312.2 29.6296C312.14 29.6601 312.136 29.698 312.186 29.7396C312.236 29.7812 312.34 29.8252 312.488 29.8672C312.635 29.9092 312.821 29.9478 313.027 29.9794C313.327 30.0302 313.633 30.0789 313.944 30.1251C313.926 30.1532 313.617 30.1577 313.662 30.183C313.784 30.2636 313.812 30.3392 313.745 30.4036C313.677 30.4681 313.515 30.5197 313.273 30.5544L314.936 31.2077C315.946 31.2982 316.936 31.4517 317.72 31.639C317.721 31.6696 317.676 31.6954 317.589 31.7135C317.502 31.7317 317.377 31.7417 317.226 31.7425C316.819 31.7559 316.436 31.7819 315.998 31.7967C315.731 31.8077 315.508 31.832 315.344 31.8681C315.179 31.9043 315.075 31.9515 315.039 32.0071L316.015 32.2501C315.703 32.3094 315.47 32.3378 315.264 32.3742C315.381 32.4505 315.582 32.5295 315.852 32.605C316.122 32.6805 316.454 32.7505 316.821 32.8096C316.92 32.8217 317.02 32.8306 317.117 32.8357C317.213 32.8408 317.304 32.842 317.383 32.8392C318.14 32.7559 319.025 32.903 319.884 33.0422C320.743 33.1814 321.21 33.2653 321.844 33.3736L323.058 33.3881C323.365 33.4394 323.64 33.4996 323.859 33.5641C324.078 33.6286 324.236 33.6954 324.32 33.7594C324.255 33.8622 323.679 33.8058 323.336 33.8164C322.522 33.8804 321.452 33.8668 320.303 33.7777C320.018 33.7449 319.726 33.7714 319.448 33.7746C318.85 33.7873 318.276 33.8082 317.727 33.8369C317.365 33.8637 317.028 33.8968 316.716 33.9361C316.632 34.0669 317.944 34.168 317.2 34.2326C317.456 34.2622 317.552 34.3034 317.684 34.2885C318.528 34.3735 319.361 34.4155 320.084 34.4096C321.472 34.3916 323.047 34.4512 324.682 34.5836C326.447 34.7208 328.14 34.7784 329.621 34.7517C330.185 34.7501 330.816 34.7782 331.464 34.8338C332.231 34.9108 332.992 34.9593 333.698 34.9759C333.932 34.9765 334.192 34.9896 334.458 35.0142C334.724 35.0388 334.988 35.0741 335.229 35.1173V35.1173C335.208 35.15 334.979 35.1738 335.03 35.1897C335.761 35.4345 336.057 35.6893 337.182 35.9395C337.951 36.0281 338.835 36.1299 339.338 36.0124C339.841 35.8948 339.66 35.7937 338.659 35.4927C338.877 35.4884 339.138 35.5025 339.399 35.5325C339.659 35.5625 339.901 35.6065 340.084 35.657L340.949 35.8822L341.73 36.0975C341.661 36.205 341.608 36.2891 341.551 36.3779C341.462 36.4722 341.56 36.587 341.831 36.7062C341.995 36.7713 342.138 36.8363 342.258 36.9008C342.746 37.1588 342.887 37.4027 342.666 37.605C342.242 37.8959 341.652 38.1636 340.903 38.405C340.111 38.6398 339.678 38.936 339.026 39.1919C338.693 39.3084 338.289 39.4128 337.818 39.5041C336.924 39.707 335.945 39.9001 335.048 40.1078C334.152 40.3154 333.139 40.4645 332.143 40.6357C330.661 40.8388 329.058 41.0142 327.344 41.1609C326.284 41.2895 325.195 41.4148 324.214 41.5625C323.056 41.7291 321.695 41.8487 320.165 41.9184C318.814 42.0018 317.607 42.1252 316.567 42.2861C316.458 42.3036 316.372 42.3257 316.311 42.352C316.124 42.5161 315.599 42.6318 314.817 42.6813C314.865 42.7294 314.926 42.7783 314.999 42.8277C315.108 42.8867 315.13 42.9418 315.064 42.9861C314.998 43.0303 314.846 43.0616 314.627 43.0758C314.002 43.1164 313.482 43.1855 313.091 43.2799C312.947 43.3035 312.858 43.338 312.831 43.3804C312.804 43.4227 312.84 43.4716 312.936 43.5229C313.021 43.5757 313.027 43.6242 312.954 43.6623C312.881 43.7004 312.731 43.7261 312.525 43.7363C311.995 43.7863 311.428 43.8265 310.827 43.8567C309.549 43.9232 308.062 43.9224 306.456 43.8543C306.285 43.8346 306.113 43.865 305.914 43.842C304.778 43.7657 303.723 43.7538 302.877 43.8079C301.885 43.829 300.848 43.8248 299.802 43.8347C298.291 43.8281 296.897 43.8682 295.659 43.954C294.244 43.8711 293.449 44.0152 292.255 44.018C291.152 44.0328 290.107 44.0683 289.129 44.1241C287.553 44.1983 285.983 44.263 284.429 44.3498C282.972 44.3911 281.63 44.4702 280.426 44.5855C279.965 44.6377 279.13 44.5565 278.815 44.6657C278.501 44.775 277.867 44.7621 277.355 44.7983L275.738 44.8878C275.46 44.9091 275.155 44.9226 274.826 44.9281C273.323 44.9354 272.282 45.0813 270.887 45.1111L270.744 45.0947C268.267 45.3115 265.433 45.4305 262.324 45.4482C260.508 45.5147 258.522 45.5115 256.595 45.5603C256.136 45.6578 255.05 45.5376 254.474 45.6267C253.897 45.7157 252.956 45.6573 252.213 45.672C251.469 45.6866 250.743 45.7232 249.948 45.722C249.259 45.7224 248.676 45.7622 248.254 45.8376C247.291 45.9624 246.116 46.0358 244.783 46.0545C243.019 46.0869 241.352 46.1605 239.558 46.1443C239.583 46.2353 239.473 46.3126 239.239 46.3685C239.004 46.4243 238.654 46.4566 238.224 46.4621C236.306 46.4968 234.566 46.5872 232.623 46.6139L232.103 46.6142L226.29 46.6664C224.724 46.6765 223.215 46.6931 221.618 46.7046C221.019 46.6356 221.005 46.7544 220.591 46.7317C220.476 46.6733 220.339 46.6475 220.135 46.6792L220.091 46.7493L213.457 46.8423C210.86 46.9103 208.128 46.9307 205.284 46.9033C204.609 46.9102 203.98 46.9334 203.405 46.9726C202.872 46.9869 202.317 46.9932 201.742 46.9915C200.964 46.9739 200.204 46.965 199.465 46.9649C197.522 46.9916 195.482 46.9772 193.354 46.9576C191.226 46.938 189.614 46.9728 187.719 46.9701C186.437 46.9677 185.16 46.9559 183.832 46.9283C183.198 46.9154 182.417 46.8454 181.76 46.8199C181.104 46.7943 180.889 46.7947 180.803 46.8349C180.517 46.9474 179.799 46.8746 179.225 46.8636C178.105 46.8449 177.946 46.8065 177.642 46.5156L179.016 46.4232C179.353 46.3934 179.776 46.3881 180.245 46.408C180.715 46.4278 181.214 46.4721 181.696 46.5366C181.886 46.5642 182.084 46.586 182.279 46.6008C182.474 46.6155 182.663 46.6229 182.834 46.6226C184.22 46.6068 185.586 46.5737 186.919 46.5467L187.113 46.529L187.126 46.2696C186.949 46.2442 186.767 46.2231 186.584 46.2072L179.903 46.0389C178.37 45.9976 176.778 45.9043 175.273 45.8663C173.768 45.8282 172.957 45.805 171.79 45.7657C171.297 45.7433 170.795 45.7139 170.286 45.6776C170.316 45.6526 170.333 45.6261 170.337 45.5982C170.364 45.5561 170.399 45.5 170.183 45.4551C169.948 45.3916 169.633 45.3374 169.301 45.3032C168.99 45.2807 168.688 45.2679 168.408 45.2655C167.053 45.2437 165.505 45.1067 164.095 44.8836L163.602 45.0325C161.485 44.9488 159.335 44.8666 157.123 44.7871C156.68 44.7654 156.215 44.7238 155.763 44.6655C155.279 44.6096 154.833 44.493 154.323 44.4292C153.82 44.3833 153.319 44.3475 152.832 44.3225C152.964 44.2842 153.138 44.2535 153.348 44.2316C153.556 44.2239 153.707 44.1999 153.779 44.1632C153.852 44.1265 153.843 44.079 153.754 44.0275C153.596 43.939 153.526 43.8558 153.87 43.8452C154.187 43.825 154.413 43.7814 154.523 43.7194C154.633 43.6574 154.622 43.5797 154.49 43.4953C154.432 43.446 154.391 43.3978 154.368 43.3509V43.3509L154.225 43.3344C153.755 43.1599 152.817 43.0968 152.144 42.954C151.826 42.9125 151.497 42.8887 151.208 42.8862C150.463 42.8555 149.738 42.8421 148.967 42.8035C148.599 42.7857 148.214 42.7533 147.835 42.7081C147.294 42.6457 147.237 42.6391 146.923 42.4123C147.411 42.4163 147.798 42.3824 148.018 42.3164C148.239 42.2503 148.279 42.1563 148.132 42.0501C147.729 41.818 147.304 41.5734 145.483 41.4085C146.077 41.4004 146.648 41.3842 147.195 41.3602C147.354 41.355 147.474 41.3379 147.537 41.3113C147.6 41.2847 147.604 41.2498 147.549 41.2112C147.494 41.1726 147.382 41.1323 147.227 41.0955C147.073 41.0588 146.885 41.0274 146.687 41.0056C145.726 40.8744 144.723 40.7865 143.791 40.752C143.005 40.7367 142.297 40.7452 141.379 40.7448L140.297 40.62C140.315 40.592 140.156 40.5536 140.196 40.5382C140.471 40.3943 140.775 40.2538 141.087 40.0992C140.588 40.0157 140.156 39.9149 139.839 39.8084C139.523 39.7018 139.336 39.5938 139.3 39.4968C139.273 39.4675 139.28 39.4408 139.32 39.4186C139.361 39.3964 139.434 39.3793 139.534 39.3683C139.819 39.3496 140.039 39.3137 140.177 39.2635C140.315 39.2133 140.367 39.1501 140.33 39.0789L139.488 38.8163C136.953 38.6289 134.464 38.495 132.067 38.4171L129.903 38.3583C129.641 38.288 129.722 38.2572 129.968 38.2554C130.214 38.2537 130.905 38.2731 131.387 38.2836C131.804 38.2974 132.174 38.2884 132.462 38.2574C132.749 38.2264 132.945 38.1745 133.029 38.1067L132.302 37.8072C132.338 37.7511 132.388 37.6717 132.783 37.677C133.052 37.6705 133.25 37.6423 133.346 37.5969C133.441 37.5515 133.428 37.4915 133.309 37.4267C133.291 37.3798 133.318 37.3371 133.389 37.3005C133.972 37.2975 134.552 37.2991 135.081 37.2849C135.328 37.2801 135.536 37.2628 135.691 37.2339C135.847 37.2051 135.946 37.1656 135.983 37.1179C136.002 37.0714 135.955 37.0184 135.847 36.9632C135.739 36.908 135.571 36.8522 135.359 36.8002C134.53 36.7359 133.772 36.7351 133.251 36.7979C133.065 36.8472 132.766 36.874 132.394 36.8751C132.023 36.8761 131.595 36.8511 131.168 36.8036C130.678 36.7487 130.19 36.7246 129.791 36.7356C129.392 36.7466 129.107 36.7919 128.989 36.8634C128.487 36.8356 128.042 36.8144 127.602 36.7838C127.084 36.7453 126.595 36.7339 126.186 36.751C125.533 36.763 124.828 36.756 124.089 36.73C121.96 36.665 119.827 36.6047 117.765 36.5777C117.219 36.57 116.747 36.5908 116.208 36.5737C115.668 36.5567 115.241 36.6028 114.566 36.5099C114.438 36.4955 114.309 36.4862 114.189 36.4829C114.069 36.4795 113.961 36.4821 113.875 36.4905C112.69 36.5639 111.301 36.5743 109.789 36.521C107.718 36.5079 105.57 36.471 103.496 36.4627C102.888 36.4699 102.313 36.4892 101.777 36.5204C101.37 36.5392 100.943 36.552 100.499 36.5586C100.159 36.5645 99.8338 36.5471 99.8913 36.649C99.9487 36.751 99.4389 36.6872 99.1451 36.6683C98.1357 36.6189 97.104 36.552 96.0616 36.4684C95.0344 36.3775 94.0281 36.3246 93.1026 36.3128C92.4342 36.306 91.745 36.3319 90.8857 36.1927C90.9184 36.1413 90.9511 36.0899 91.1382 36.0362C90.4374 35.8885 89.6378 35.7614 88.8055 35.6655C87.9733 35.5695 87.1323 35.5075 86.3521 35.4844L85.2763 35.2049C85.0115 35.1721 84.741 35.1482 84.4815 35.1346C84.222 35.1211 83.9789 35.1182 83.7668 35.1262C83.603 35.1302 83.4033 35.1198 83.2045 35.0969C83.0056 35.074 82.8209 35.0401 82.6843 35.0014C82.48 34.9521 82.2305 34.9097 81.967 34.8793C81.7035 34.8489 81.4376 34.832 81.2029 34.8306C80.4637 34.8002 79.6747 34.73 78.9166 34.6272C78.7198 34.5669 78.5966 34.5047 78.562 34.4481C78.5273 34.3915 78.583 34.3431 78.7219 34.3088C78.9458 34.2482 79.0715 34.171 79.0915 34.0819C79.1114 33.9928 79.0251 33.8937 78.8378 33.7904C78.7419 33.727 78.7098 33.667 78.7436 33.614C78.7773 33.561 78.8762 33.5161 79.0342 33.482C79.6239 33.3242 79.4661 33.2358 78.5013 32.9741C78.3446 32.9305 78.1557 32.8897 77.9465 32.8544C77.7374 32.819 77.5127 32.7899 77.2865 32.7688C76.7559 32.7262 76.2325 32.6945 75.726 32.6742C75.4411 32.6414 75.149 32.6679 74.8207 32.6551C73.1795 32.5913 72.9392 32.4884 72.4077 32.2666L72.0203 32.1065C71.3019 31.9769 70.5162 31.8692 69.7197 31.7913C68.9233 31.7134 68.1361 31.6671 67.4146 31.6558C67.1279 31.655 66.7982 31.6328 66.4762 31.5928C65.4282 31.4703 64.3668 31.3856 63.3624 31.3442C62.7365 31.3208 62.0619 31.2605 61.4195 31.1705C60.7771 31.0804 60.1942 30.9644 59.741 30.8364C59.3338 30.721 58.8011 30.6175 58.217 30.5403C57.5333 30.4615 57.47 30.3689 57.8518 30.2975C58.2336 30.2262 58.8731 30.1343 59.4407 30.0593C59.6382 30.0338 59.7606 29.9924 59.7942 29.9396C59.8278 29.8868 59.7714 29.8247 59.6311 29.7602C59.5411 29.65 59.5254 29.5453 59.5846 29.4489C59.6163 29.4088 59.5945 29.3628 59.5206 29.3141C59.4467 29.2654 59.3226 29.215 59.1564 29.1664C58.9903 29.1177 58.7862 29.072 58.5577 29.0322C58.3292 28.9925 58.0817 28.9596 57.8319 28.9358C56.7778 28.8143 55.7522 28.6961 54.6773 28.6072C54.2269 28.5654 53.7769 28.5135 53.3384 28.4529C52.4408 28.3029 51.4805 28.1786 50.5133 28.0871C50.0543 28.0461 49.6055 27.9746 49.2641 27.8879C48.1873 27.6543 47.1951 27.4087 46.3054 27.1555C46.091 27.077 45.8104 27.0004 45.4813 26.9305C45.1522 26.8606 44.7816 26.7989 44.3929 26.7494C44.0795 26.7133 43.8244 26.6337 43.5829 26.5808C43.4074 26.4582 43.3886 26.3448 43.5284 26.2512C43.6682 26.1577 43.962 26.087 44.3821 26.0459C44.7805 25.9965 45.1533 25.9391 45.4977 25.8785C45.9129 25.8295 46.4064 25.8001 46.96 25.7913C47.6156 25.765 48.1004 25.6898 48.3512 25.5754C46.5564 25.3685 44.8497 25.0714 43.2765 25.1409L42.0811 24.9529C42.1287 24.8781 42.1704 24.8127 42.2091 24.752C42.4934 24.6414 42.5822 24.5019 42.4679 24.3454C42.3738 24.2697 42.3823 24.2008 42.4926 24.1456C42.6028 24.0905 42.811 24.0512 43.0959 24.0315C44.7839 23.8298 46.7359 23.6937 48.3189 23.4649C48.8152 23.4219 49.3962 23.4024 50.0374 23.4072C50.6578 23.3934 50.6319 23.2901 49.9179 23.1626C49.5172 23.096 49.1088 23.0322 48.6942 22.9714C46.8659 22.9613 46.121 23.2667 44.0346 23.1816L43.0676 22.7792C42.8061 22.773 42.5522 22.7705 42.3077 22.7719L38.8093 22.9354C38.5179 22.9436 38.2911 22.9715 38.1546 23.0161C38.0181 23.0607 37.9775 23.12 38.0372 23.1875C38.0609 23.27 38.0127 23.3457 37.8944 23.4118C37.8181 23.4581 37.8669 23.5196 38.0301 23.5829C38.3979 23.7257 37.926 23.7465 37.6279 23.7824C37.5517 23.7859 37.4639 23.7855 37.3695 23.7813C37.275 23.777 37.1759 23.769 37.0779 23.7577C36.9798 23.7464 36.8848 23.7321 36.7983 23.7154C36.7118 23.6988 36.6355 23.6802 36.5739 23.6609C36.0487 23.5251 35.5894 23.3818 35.0732 23.232C35.4397 23.0887 35.0085 22.8533 35.5804 22.7236C35.6443 22.6977 35.6699 22.6662 35.6556 22.6309C35.6412 22.5956 35.5873 22.5573 35.497 22.5184C35.2641 22.418 35.1532 22.3201 35.1754 22.2345C35.1977 22.149 35.3522 22.0789 35.6236 22.0314L35.6563 21.98C34.9407 21.8072 35.1303 21.6534 34.8492 21.4705L34.1608 21.3511C32.4481 21.0633 32.4451 21.068 30.9705 21.0786C30.6733 20.9691 31.0509 20.9524 31.3341 20.9399L33.7058 20.817C35.2565 20.735 36.8522 20.6781 38.5844 20.6471C40.3166 20.616 42.2478 20.5126 44.0383 20.4381C44.1288 20.4324 44.1981 20.421 44.2402 20.4049C44.2824 20.3888 44.2962 20.3685 44.2806 20.3457C44.2095 20.321 44.1163 20.2972 44.008 20.2761C43.8998 20.2549 43.7792 20.2369 43.6551 20.2234C43.0853 20.1577 42.5007 20.1154 41.8935 20.0604L40.7616 19.9651L40.4134 19.8396C40.1868 19.7634 40.0319 19.6703 39.7305 19.6154C39.482 19.5745 39.2123 19.5435 38.9495 19.5256C38.6866 19.5076 38.4402 19.5034 38.2359 19.5134C37.6696 19.5384 37.1572 19.5746 36.6164 19.6076C36.0755 19.6405 35.7775 19.6764 35.3085 19.6925C34.3556 19.6999 33.4348 19.7193 32.5499 19.7507C31.8046 19.8251 31.1152 19.9131 30.4861 20.0144C30.0936 20.0545 29.7267 20.1025 29.0565 20.0503C28.7386 20.003 28.4644 19.9408 28.2825 19.8749C28.1006 19.8089 28.0228 19.7434 28.0628 19.6899C28.0988 19.648 28.2005 19.6149 28.3586 19.5936C28.5166 19.5723 28.7256 19.5636 28.9659 19.5683C29.6385 19.5606 30.2605 19.5347 30.8193 19.491C31.5972 19.412 32.544 19.3779 33.6047 19.3908C33.9644 19.4022 34.2055 19.3597 34.5202 19.3458C34.8348 19.3319 35.1014 19.2975 35.4521 19.3229C36.5419 19.3883 37.0645 19.288 37.7175 19.2229C37.9386 19.194 38.0756 19.1473 38.1134 19.0879C38.1512 19.0285 38.0884 18.9588 37.9318 18.8864C37.6304 18.7421 37.2616 18.5971 36.8313 18.4535C36.6099 18.3829 36.3262 18.3159 36.0025 18.2577C35.6787 18.1995 35.3238 18.1517 34.9655 18.118C34.751 18.0297 34.6366 17.9428 34.6326 17.8653C34.6286 17.7877 34.7351 17.722 34.9425 17.6739C35.471 17.5643 35.9395 17.4528 37.1237 17.5141C37.6804 17.5375 38.2044 17.5419 38.6747 17.5273C39.718 17.5073 40.9214 17.5511 42.1716 17.6546C42.495 17.6811 42.8129 17.6992 43.1159 17.7083C45.2772 17.7718 47.3364 17.8036 49.4015 17.826C50.4956 17.8367 51.5985 17.8334 52.7406 17.8648C55.4189 17.9328 57.8569 17.8978 60.4421 17.92C61.796 17.9313 63.0079 17.8856 64.0142 17.785C64.2101 17.7513 64.3784 17.7119 64.5171 17.6674C63.8503 17.5506 63.1178 17.4581 62.3899 17.3987C61.662 17.3394 60.963 17.3152 60.3599 17.3286C60.0284 17.3613 59.5999 17.3673 59.1221 17.3459C58.6444 17.3244 58.1363 17.2765 57.6544 17.2073V17.2073L59.0554 17.1682C59.9845 17.1499 60.9361 17.1442 61.8396 17.1179C63.275 17.0727 64.6054 17.0004 66.0919 16.9711C67.292 16.9442 68.3659 16.8753 69.2799 16.7668C69.9402 16.6876 70.6944 16.6314 71.527 16.5995C72.1189 16.5824 72.1189 16.5824 72.4973 16.4204C72.1971 16.3155 71.8089 16.3009 71.4432 16.2989C69.251 16.2329 67.1647 16.2213 65.2269 16.2644C64.2492 16.2682 63.3818 16.3127 62.6664 16.3956C62.4912 16.4306 62.0431 16.414 61.6834 16.4027C60.5557 16.3854 59.4779 16.3904 58.463 16.4176C57.0597 16.4631 55.4969 16.4523 53.8351 16.3857C53.5201 16.3043 53.8827 16.311 53.9006 16.2829C55.1876 16.2307 56.4492 16.1704 57.7618 16.1261C58.1206 16.1103 58.5041 16.1025 58.9081 16.1028C60.4162 16.1302 61.6729 16.0541 62.5022 15.8851C62.5438 15.8196 63.0894 15.8274 63.3304 15.7849C63.449 15.7482 63.528 15.705 63.5651 15.6565C63.2139 15.5357 62.8167 15.5351 62.511 15.5349C61.6239 15.5484 60.7705 15.574 59.9548 15.6115C59.1966 15.6471 58.3574 15.6567 57.4597 15.6398C56.7973 15.6237 56.231 15.6487 55.5626 15.6418C55.2 15.6275 54.8247 15.6044 54.4443 15.5731C54.8678 15.4889 55.4436 15.4372 56.131 15.4214C56.6523 15.3712 57.3041 15.356 57.3874 15.2252C57.1412 15.1316 56.8669 15.1301 56.6467 15.1398C56.1883 15.1394 55.7454 15.1453 55.3205 15.1574C54.4196 15.1841 53.4442 15.1844 52.4148 15.1585C51.8727 15.1489 51.3583 15.1518 50.8802 15.1672C49.7969 15.1878 48.7585 15.2336 47.7666 15.2547C45.7346 15.2763 43.8813 15.3536 41.9288 15.3943C41.4942 15.4044 41.1047 15.4398 40.532 15.3788C39.9592 15.3178 39.9337 15.3098 39.8661 15.2719C39.7058 15.2087 39.6573 15.1474 39.7305 15.1008C39.8441 15.0572 40.0654 15.0329 40.355 15.0323C42.1004 14.963 43.7559 14.8657 45.3111 14.7409C45.9955 14.7159 46.5951 14.6649 47.0892 14.5897C47.481 14.5379 47.9457 14.5036 48.4689 14.4879C49.2297 14.4505 50.0229 14.4231 50.8453 14.4057C51.2279 14.3964 51.5532 14.3687 51.8021 14.3242C52.0511 14.2796 52.2185 14.2192 52.2946 14.1464L51.2865 13.9048C51.1281 13.8936 50.971 13.8838 50.8158 13.8756L42.4485 14.0497L41.6198 14.0545C40.7116 14.0401 40.4896 14.0044 39.6282 13.7245C41.5942 13.6587 43.1398 13.4667 44.1109 13.1678C43.8775 13.1357 43.6382 13.1081 43.3986 13.0857C41.8274 13.015 40.3421 12.9962 39 13.0301C38.2028 13.0335 37.383 13.0243 36.5603 13.0197C36.8009 12.8819 37.7227 12.923 38.3235 12.8919C39.759 12.8433 41.0284 12.7429 42.0911 12.5939C42.4575 12.5358 42.9159 12.4986 43.4452 12.4841C43.975 12.4791 44.4176 12.444 44.7344 12.3817C45.0512 12.3194 45.2326 12.2319 45.2628 12.1268C45.3127 12.0317 45.4203 11.9432 45.5839 11.8629C45.2945 11.7488 44.835 11.6396 44.2916 11.5557C43.7482 11.4718 43.1583 11.419 42.6325 11.4072C41.5101 11.3603 40.346 11.2834 39.1697 11.1786C38.5838 11.1257 38.0092 11.0954 37.4834 11.0895C37.0197 11.085 36.4925 11.0468 35.9825 10.9808C35.4724 10.9147 35.0074 10.8244 34.6583 10.7237C34.1872 10.5991 33.7475 10.4732 33.3078 10.3473C32.8681 10.2213 32.3579 10.0622 31.8447 9.90771C31.3922 9.88356 30.9515 9.86803 30.5287 9.86134C30.1998 9.867 29.8159 9.85016 29.4225 9.8128C29.0291 9.77544 28.6424 9.71913 28.3083 9.6505V9.6505C28.5043 9.5828 28.7258 9.52306 28.9592 9.44463C28.6388 9.34106 28.4065 9.23544 28.2765 9.13421C28.1464 9.03297 28.1213 8.93823 28.2027 8.85578C28.2503 8.78101 27.902 8.65558 27.7817 8.55643C27.6267 8.47095 27.5977 8.39119 27.6982 8.32758C27.7987 8.26398 28.0242 8.21951 28.345 8.20001C28.743 8.16401 29.0669 8.10981 29.3034 8.03961C29.3816 8.02139 29.4214 7.99644 29.4192 7.96703C29.417 7.93762 29.3728 7.90471 29.2906 7.87129C29.2085 7.83786 29.091 7.805 28.949 7.77572C28.8069 7.74643 28.6449 7.72164 28.4776 7.70363C27.9651 7.65256 27.4562 7.61946 26.98 7.60622C26.1597 7.58188 25.3743 7.56658 24.624 7.56034C23.7942 7.55095 22.871 7.49298 21.9482 7.39231C21.1221 7.29707 20.3814 7.21167 19.9774 7.02966C19.5734 6.84765 18.9275 6.85345 18.4309 6.72095C18.7099 6.6015 19.2058 6.51852 19.8685 6.48036C20.3021 6.46673 20.6641 6.43098 20.9312 6.37539C21.1983 6.3198 21.3646 6.24559 21.4195 6.15754L19.9117 5.78807C18.7075 5.61413 18.0413 5.74801 16.7402 5.67827L18.0808 5.54188C18.1077 5.5284 18.1178 5.51257 18.1105 5.49515C17.9804 5.21929 17.7733 5.1603 16.4028 5.00733L15.6337 4.91865L14.4163 4.81342C14.2213 4.75688 14.0865 4.69793 14.0252 4.64245C13.964 4.58697 13.9784 4.53691 14.0672 4.49727C14.2455 4.43062 14.2998 4.34544 14.2249 4.24959C14.1068 4.18609 14.0971 4.12756 14.1973 4.08414C14.2976 4.04072 14.5015 4.01515 14.7738 4.01189C14.991 4.00684 15.0072 3.93346 15.1254 3.8919C15.2428 3.83463 15.4438 3.79068 15.7147 3.76305C15.9856 3.73542 16.3199 3.72474 16.6951 3.73176C17.8012 3.7375 18.8403 3.716 19.7939 3.66765L19.623 3.64794C20.6169 3.69039 21.5462 3.69554 22.3654 3.66314C23.1865 3.62235 24.2401 3.64851 25.1122 3.62364C25.8221 3.62935 26.3626 3.5729 26.619 3.46629C26.8673 3.36449 27.7696 3.38824 28.4605 3.40771C28.8698 3.42029 29.2654 3.42563 29.643 3.42364C30.1499 3.4006 30.7837 3.42232 31.4386 3.48518C31.6352 3.5045 31.8287 3.51473 32.0007 3.51487C33.6658 3.54129 35.3278 3.57238 36.9704 3.58618C37.3495 3.57823 37.7941 3.59642 38.2519 3.63861C38.4443 3.65692 38.6316 3.66451 38.7885 3.66035C41.3839 3.61845 44.3126 3.72534 46.8569 3.66753C47.1653 3.65388 47.5067 3.65104 47.8715 3.65909C48.6911 3.69305 49.4029 3.67119 49.8988 3.59685C50.1663 3.5573 50.5093 3.53551 50.9059 3.53286C51.3024 3.53022 51.7439 3.54677 52.202 3.58147C52.9645 3.62742 53.6691 3.6324 54.2416 3.59589C55.3579 3.56216 56.5319 3.5483 57.7542 3.5544C58.1287 3.5603 58.4579 3.54719 58.7164 3.51609C58.9748 3.48499 59.1555 3.43673 59.2444 3.37506C58.9442 3.27022 58.616 3.25746 58.3043 3.26668C57.0963 3.24279 55.8913 3.21422 54.7059 3.20297C53.6448 3.17081 52.6268 3.16098 51.6666 3.17362C51.1899 3.18788 50.595 3.15536 50.0118 3.08316C49.297 2.99172 48.5608 2.94629 47.9521 2.95606C47.5008 2.95849 47.0244 2.95061 46.5298 2.93255C46.2133 2.91077 45.8888 2.87336 45.5897 2.82417C45.471 2.80281 45.3418 2.78484 45.2104 2.77143C45.079 2.75802 44.9484 2.74946 44.8267 2.74628C44.7049 2.74311 44.5948 2.74538 44.5035 2.75299C44.4122 2.76059 44.3416 2.77335 44.2963 2.79043C43.8384 2.93328 42.8145 2.86038 41.9377 2.84458C40.6238 2.60281 39.646 2.74591 38.418 2.60935C38.3209 2.6003 38.2252 2.59482 38.1368 2.59325C38.0484 2.59169 37.9692 2.59407 37.9039 2.60025C35.5275 2.68244 32.7578 2.61394 30.2628 2.64232C29.9877 2.64647 29.6683 2.63225 29.341 2.60127C27.2021 2.39619 25.1456 2.33797 23.5736 2.43799C23.3823 2.447 23.1648 2.44738 22.9308 2.43912C21.856 2.35762 20.8282 2.32512 19.9331 2.34435C18.5304 2.33814 17.1817 2.34317 15.7565 2.32433C14.774 2.29753 13.9121 2.32617 13.2572 2.4074C13.2363 2.44011 12.8001 2.40486 12.4659 2.40145C12.2737 2.31909 12.107 2.24471 11.9089 2.1717C11.7317 2.08138 11.4664 1.98997 11.1309 1.90369C10.7954 1.81741 10.3976 1.73828 9.96439 1.67163C9.22369 1.58623 9.14961 1.46232 9.66791 1.41673C11.0038 1.2659 12.6837 1.20417 14.584 1.23606C16.1725 1.23861 17.7895 1.24445 19.4006 1.25963C20.3403 1.27265 21.3309 1.30158 22.2451 1.30664C22.5535 1.31777 22.8704 1.33417 23.1924 1.35567C23.5875 1.38684 23.9711 1.40382 24.3226 1.4057C25.4512 1.37945 26.7106 1.40232 28.0409 1.47321C28.5282 1.48866 28.9961 1.49387 29.4377 1.48876C30.4823 1.46952 31.6148 1.48368 32.8052 1.53086C33.545 1.55747 34.2624 1.57139 34.9499 1.57246C35.1927 1.57536 35.3904 1.55301 35.6243 1.56994C37.6827 1.74705 39.1402 1.61912 40.9928 1.68723C41.8932 1.70622 42.7534 1.70627 43.5613 1.68739C45.1381 1.6883 46.7588 1.70772 48.4171 1.74556C50.6098 1.80774 52.6417 1.78616 54.7354 1.81183C55.1487 1.81723 55.5478 1.81631 55.9298 1.80908C57.7878 1.7613 59.8059 1.77143 61.9348 1.83923C62.4182 1.84902 62.8523 1.83704 63.2101 1.80406C63.5679 1.77107 63.8415 1.71778 64.0139 1.64752C64.0868 1.5993 64.0396 1.53666 63.8812 1.4717C63.6185 1.38874 63.3217 1.30745 62.9959 1.22918L51.1453 0.966542C50.6476 0.952827 50.1622 0.945444 49.6916 0.944423C48.3076 0.94214 46.881 0.921707 45.4188 0.883229C43.974 0.847084 42.5938 0.853501 41.1941 0.842619C40.7818 0.838973 40.3586 0.830372 39.9262 0.81684C37.0036 0.70974 34.1538 0.644325 31.3968 0.621064C30.2368 0.617763 28.9838 0.568611 27.8013 0.552679C26.6189 0.536747 25.0018 0.530914 23.5991 0.524705L19.2563 0.525659C18.4021 0.522489 17.5704 0.531946 16.7417 0.536734C15.736 0.195062 15.3895 0.114978 14.0475 -0.0347143C13.5885 -0.0899317 13.1215 -0.122884 12.7014 -0.129712C11.3693 -0.102701 9.6978 -0.215137 8.43456 -0.200251C7.6723 -0.207594 7.02549 -0.169638 6.56035 -0.0902673C6.15657 -0.0279766 5.69484 0.0213123 5.18229 0.0568551C3.77825 -0.235437 3.65451 -0.425273 4.71068 -0.499146C4.99683 -0.51632 5.39098 -0.511008 5.59761 -0.547381C5.71618 -0.569532 5.87815 -0.582202 6.07061 -0.584391C6.26308 -0.586581 6.48072 -0.578234 6.70647 -0.56C7.41894 -0.512168 8.08673 -0.500918 8.64284 -0.527382C9.1662 -0.562406 9.80772 -0.561009 10.5056 -0.523318C11.0184 -0.464199 11.4691 -0.547676 11.9126 -0.571794C12.356 -0.595912 12.72 -0.639236 13.4126 -0.574431C13.5394 -0.561528 13.6654 -0.553781 13.7807 -0.551787C13.8961 -0.549793 13.9978 -0.553603 14.078 -0.562926C14.822 -0.604663 15.7097 -0.600278 16.6692 -0.55013C18.1407 -0.500781 19.5214 -0.498931 20.7633 -0.544641C21.5068 -0.584637 22.1406 -0.655564 22.6401 -0.754657C22.7763 -0.7878 22.9784 -0.807674 23.2273 -0.812373C24.4768 -0.791697 25.8336 -0.713883 27.2101 -0.583952C27.7287 -0.53189 28.2466 -0.49071 28.7527 -0.461288C29.793 -0.395927 30.7992 -0.359301 31.7414 -0.352496C33.1106 -0.351417 34.5361 -0.326269 36.0053 -0.27728C36.912 -0.250003 37.7856 -0.239936 38.6159 -0.247187C39.4693 -0.250606 40.3805 -0.229798 41.3287 -0.18525C42.2717 -0.148948 43.1028 -0.169865 43.7217 -0.245468C43.9254 -0.286208 44.0896 -0.334587 44.211 -0.3897C42.8303 -0.569038 41.4023 -0.660181 40.2146 -0.644774C39.7634 -0.656653 39.3888 -0.64466 38.9135 -0.714514L38.8986 -0.691148C38.804 -0.675987 38.6613 -0.67241 38.4976 -0.6811C38.334 -0.689791 38.1609 -0.710138 38.0112 -0.738269V-0.738269C38.0678 -0.827061 38.1213 -0.91118 38.16 -0.971933C39.065 -0.961215 39.9436 -0.962083 40.7916 -0.974542C41.5063 -0.992467 42.4766 -0.835458 43.0952 -0.894561C44.3019 -0.820654 45.0702 -0.922699 46.1524 -0.893254C47.2345 -0.863809 48.4263 -0.766534 49.5084 -0.73709C50.4527 -0.720931 51.3696 -0.717419 52.2539 -0.726569C52.5591 -0.739412 52.911 -0.7364 53.288 -0.717714C53.8178 -0.682559 54.3107 -0.676667 54.71 -0.70072C55.1093 -0.724773 55.3989 -0.7778 55.5457 -0.853717C55.4075 -0.924829 55.2213 -1.01652 55.0065 -1.11151C55.4016 -1.18956 56.0015 -1.22242 56.7174 -1.20521L57.729 -1.20898C57.9971 -1.20692 58.202 -1.22802 58.3014 -1.26791C58.4007 -1.30781 58.387 -1.36344 58.263 -1.42331C56.3449 -1.7247 56.2743 -1.75793 54.8665 -1.56407L52.9973 -1.65415L53.0288 -1.65554ZM78.3109 -0.827618L78.1685 -0.844035L78.3109 -0.827618ZM311.247 31.2389L311.214 31.2903L311.25 31.2342L311.563 31.2703L311.584 31.2376L311.247 31.2389ZM265.748 8.70726C265.305 8.65118 264.858 8.59962 264.409 8.55289C264.292 8.54565 264.182 8.54401 264.088 8.54812C263.995 8.55223 263.922 8.56197 263.874 8.5765C263.838 8.63258 264.089 8.67149 264.317 8.69776C264.604 8.73313 264.898 8.7556 265.167 8.76286C265.437 8.77013 265.673 8.76193 265.85 8.73909L266.108 8.71863L265.748 8.70726ZM37.6063 22.3753C37.8979 22.3848 38.1745 22.3863 38.4291 22.3799C39.5589 22.3346 40.6405 22.2686 41.7987 22.2266C43.26 22.1199 44.9393 22.0764 46.7734 22.0978C47.49 22.1083 48.0954 22.0737 48.5189 21.9981C48.7724 21.9575 49.0997 21.9338 49.4806 21.9284L54.3295 21.8052C54.6292 21.7796 54.8883 21.7437 55.1008 21.6984C54.6734 21.6492 54.3886 21.6163 54.2176 21.5966C53.863 21.5911 53.5581 21.6061 53.3337 21.6402C53.0926 21.698 52.685 21.7208 52.192 21.7042C51.6943 21.6905 51.2089 21.6831 50.7383 21.6821C49.8497 21.685 48.955 21.6972 48.0634 21.7048C47.7164 21.8654 46.6926 21.7925 45.8158 21.7767L45.1385 21.7839C42.9244 21.8672 40.8095 21.9818 38.804 22.1271C38.4164 22.1517 38.0825 22.1909 37.8125 22.2436C37.7108 22.2847 37.6783 22.3358 37.7173 22.3931L37.5749 22.3767L37.6063 22.3753ZM136.475 37.7365C137.013 37.7475 137.572 37.77 138.145 37.8036C138.587 37.838 139.018 37.8589 139.421 37.8654C141.679 37.9014 144.032 37.9846 146.449 38.1138C146.765 38.1334 147.068 38.143 147.348 38.1423L149.326 38.1095C149.949 38.091 149.961 38.0723 149.508 37.8244C149.131 37.7763 148.75 37.7324 148.368 37.693C148.14 37.6667 147.77 37.624 147.683 37.6642C147.155 37.7738 146.191 37.7028 145.38 37.6796C143.033 37.6197 140.612 37.5312 138.243 37.4587C137.742 37.441 137.256 37.432 136.792 37.4319C136.503 37.4282 136.241 37.4352 136.014 37.4526C135.948 37.4544 135.892 37.4596 135.852 37.4678C135.811 37.4761 135.785 37.4872 135.777 37.5005C135.768 37.5137 135.777 37.5288 135.803 37.5447C135.828 37.5607 135.87 37.577 135.925 37.5928C136.119 37.648 136.343 37.7009 136.589 37.7497L136.475 37.7365ZM153.669 1.75036L155.981 1.72096C156.258 1.71781 156.494 1.68472 156.79 1.69887C158.374 1.74372 159.839 1.73123 161.126 1.66193C161.564 1.63365 162.076 1.62799 162.635 1.64528C164.345 1.69649 165.959 1.69859 167.432 1.65154C168.384 1.64209 169.275 1.61037 170.091 1.55685C170.154 1.54442 170.193 1.52755 170.206 1.50739C170.219 1.48723 170.205 1.46425 170.166 1.44002C170.155 1.42471 170.127 1.40824 170.084 1.39174C170.04 1.37525 169.981 1.35912 169.912 1.34447C169.843 1.32983 169.765 1.31701 169.683 1.3069C169.601 1.29679 169.518 1.28962 169.438 1.2859C168.406 1.21345 167.427 1.18821 166.58 1.21223C165.795 1.24097 164.949 1.24938 164.056 1.23733C163.202 1.23416 162.623 1.32787 161.567 1.25637C161.121 1.23282 160.727 1.24057 160.452 1.27832C159.9 1.3409 159.128 1.34438 158.275 1.28814C157.765 1.25969 157.277 1.24748 156.83 1.252C155.747 1.27257 154.711 1.31373 153.708 1.3535C153.391 1.3627 153.052 1.36397 152.696 1.35728L147.669 1.2794C146.462 1.25551 145.256 1.22695 144.071 1.21569C143.102 1.19125 142.199 1.1989 141.396 1.23839C140.54 1.2799 139.606 1.29675 138.612 1.28862C137.069 1.31133 135.534 1.32002 133.854 1.31697C132.783 1.31885 131.686 1.31277 130.566 1.29406C130 1.26998 129.519 1.28959 129.216 1.34912C129.032 1.39812 128.599 1.3582 128.239 1.34682C126.32 1.23721 124.521 1.21124 122.967 1.27072C122.768 1.28041 122.55 1.28392 122.318 1.28118C120.821 1.27914 119.27 1.26585 117.832 1.26571C117.454 1.27033 117.098 1.28301 116.769 1.30359C116.804 1.33716 116.904 1.37355 117.049 1.4052C117.194 1.43686 117.373 1.46136 117.547 1.47361C118.906 1.5674 120.219 1.61695 121.429 1.62017C123.444 1.60823 125.555 1.63509 127.739 1.70047C129.434 1.76639 130.979 1.75252 132.26 1.65987C133.261 1.59074 134.564 1.61675 135.944 1.73343C136.534 1.78916 137.107 1.81144 137.585 1.79724C138.044 1.7786 138.572 1.78312 139.136 1.81053C140.326 1.86264 141.47 1.88681 142.546 1.88257C143.598 1.86339 144.579 1.81098 145.659 1.79508C146.74 1.77919 148.385 1.7883 149.717 1.76129C151.049 1.73428 152.367 1.73064 153.669 1.75036ZM57.8604 -0.983142C57.9825 -0.838646 58.4145 -0.748706 58.8793 -0.710176C60.4815 -0.539092 62.0656 -0.46629 63.3655 -0.503987C64.0676 -0.55657 65.0037 -0.536329 65.9897 -0.44724C67.1379 -0.354631 68.211 -0.339273 69.0201 -0.403872C69.2183 -0.41516 69.3701 -0.439022 69.4619 -0.473333C69.4797 -0.501373 69.5124 -0.552777 69.5184 -0.562124C69.4334 -0.585828 69.3292 -0.60779 69.2137 -0.626319C69.0983 -0.644847 68.9747 -0.659444 68.8526 -0.668986L63.5453 -0.834394L62.6204 -0.870793C60.9312 -0.966153 59.3215 -1.00414 57.8604 -0.983142V-0.983142ZM68.2998 1.30391C69.1281 1.53986 69.131 1.53518 69.5554 1.58911C71.6026 1.81316 73.6484 1.9341 75.4495 1.93755C75.8497 1.93687 76.1895 1.91409 76.4398 1.87114C76.5686 1.86532 76.6506 1.84682 76.6679 1.81968C76.6852 1.79254 76.6363 1.75896 76.532 1.72626L75.8734 1.56004C74.6772 1.48807 73.4981 1.43089 72.3434 1.38884C70.9989 1.33918 69.8075 1.33727 68.4137 1.31704L68.2998 1.30391ZM136.376 36.6917C137.148 37.0165 137.151 37.0118 138.443 37.0956C139.344 37.1549 140.217 37.1898 141.038 37.1991C142.04 37.2093 143.068 37.2275 144.068 37.2424C144.312 37.2528 144.519 37.2442 144.648 37.2183C144.778 37.1925 144.821 37.1512 144.769 37.1025C144.638 37.0496 144.432 36.9985 144.186 36.9574C143.941 36.9163 143.668 36.8877 143.414 36.8761L142.869 36.8684C142.206 36.8522 141.518 36.8281 140.879 36.8246C140.463 36.838 139.982 36.8276 139.473 36.7941C138.964 36.7607 138.44 36.705 137.943 36.6316L136.376 36.6917ZM72.4212 -0.558541C72.6273 -0.502303 72.8604 -0.448438 73.1143 -0.398383C74.0973 -0.259641 75.1377 -0.180841 76.0315 -0.177431C76.4542 -0.168836 76.8407 -0.199523 77.271 -0.154931C78.0428 -0.0953431 78.7907 -0.0636017 79.4744 -0.0614256C79.4744 -0.0614256 79.6661 -0.0744369 79.7291 -0.0772147L79.86 -0.282838C79.5363 -0.330473 79.1988 -0.369389 78.8629 -0.397793C77.7357 -0.452499 76.6281 -0.4899 75.5234 -0.531976C74.4187 -0.574052 74.0335 -0.59338 73.3111 -0.611452C72.9889 -0.601518 72.6908 -0.583794 72.4212 -0.558541ZM48.0113 25.0045L49.4864 25.4254C49.9638 25.462 50.4097 25.4686 50.7564 25.4443C51.1031 25.42 51.3315 25.366 51.4069 25.2907C51.5284 25.2554 51.5406 25.2032 51.4408 25.1449C51.3411 25.0866 51.1372 25.0269 50.872 24.9782C50.6167 24.9204 50.3253 24.8686 50.0158 24.8261C49.7062 24.7835 49.3852 24.751 49.0726 24.7306L48.0113 25.0045ZM60.293 22.909C59.3282 22.8377 58.4054 22.8085 57.5951 22.8237C57.0847 22.8655 56.3929 22.8522 55.6618 22.7865C54.3323 22.6555 53.0506 22.6193 52.0872 22.6854C52.0872 22.6854 52.0515 22.7414 51.8882 22.7577C51.7249 22.774 52.3725 22.8136 52.5149 22.83C53.5596 22.8702 54.6103 22.901 55.5185 22.9154C56.0824 22.9148 56.6788 22.928 57.2975 22.955C58.1488 22.9965 58.9561 23.0099 59.688 22.9948C59.688 22.9948 59.9711 22.9823 60.29 22.9137L60.293 22.909ZM163.328 0.987862C162.868 0.908599 162.368 0.844179 161.867 0.799438C161.366 0.754697 160.876 0.730798 160.435 0.729525C160.097 0.72539 159.824 0.746317 159.658 0.788999C159.492 0.831682 159.444 0.893683 159.52 0.965199C159.862 1.00461 160.318 1.05716 160.574 1.08672C161.463 1.08383 162.221 1.04582 163.328 0.987862ZM249.591 7.66728C249.222 7.60347 248.814 7.55468 248.416 7.52649C248.018 7.4983 247.644 7.49184 247.338 7.50785C247.181 7.51479 247.288 7.58729 247.261 7.62935C247.244 7.63889 247.244 7.65075 247.262 7.66369C247.279 7.67664 247.314 7.69019 247.362 7.70292C247.411 7.71566 247.47 7.72711 247.535 7.73607C247.6 7.74504 247.668 7.7512 247.732 7.7539C248.133 7.78138 248.512 7.78956 248.834 7.77771C249.157 7.76586 249.413 7.73434 249.579 7.68597L249.591 7.66728ZM255.371 8.57941C255.314 8.54176 255.192 8.50252 255.028 8.46888C254.864 8.43524 254.669 8.40945 254.479 8.39626C254.142 8.39448 253.836 8.40492 253.572 8.42719C253.286 8.44436 253.492 8.55337 253.879 8.61804C254.043 8.644 254.218 8.66425 254.39 8.67718C254.563 8.69011 254.727 8.69536 254.872 8.69252C255.016 8.68967 255.136 8.67881 255.221 8.6608C255.307 8.64279 255.356 8.61812 255.365 8.58876L255.371 8.57941ZM87.4254 -0.158066C86.5631 -0.292594 85.8994 -0.258751 85.1694 -0.31282C84.4393 -0.366889 84.2594 -0.372578 84.3572 -0.286057C84.4551 -0.199536 84.9555 -0.217083 85.2689 -0.180955C85.6923 -0.133016 86.1182 -0.105489 86.4991 -0.101446C86.88 -0.0974032 87.2007 -0.117007 87.4254 -0.158066V-0.158066ZM267.114 22.6043C266.657 22.5741 266.209 22.5528 265.778 22.5407C265.721 22.5532 265.686 22.5695 265.673 22.5888C265.661 22.6081 265.672 22.6298 265.707 22.6528C265.707 22.6528 265.999 22.7217 266.17 22.7414C266.8 22.8089 266.831 22.7122 267.114 22.6043V22.6043ZM331.668 35.1382C331.977 35.229 332.121 35.2908 332.369 35.3344C332.483 35.3495 332.6 35.3605 332.713 35.3665C332.825 35.3726 332.93 35.3735 333.02 35.3692C333.128 35.3431 333.154 35.303 333.091 35.2571C333.091 35.2571 332.776 35.1756 332.656 35.1718C332.314 35.1526 331.982 35.1413 331.668 35.1382V35.1382ZM72.7477 -0.927225C72.0925 -1.00276 71.4657 -1.07503 71.012 -0.986872C72.0525 -0.892001 72.0525 -0.891995 72.7477 -0.927225ZM83.3602 -0.0649106C82.6986 -0.226465 82.3103 -0.241126 81.9927 -0.222564C81.9252 -0.217888 81.8806 -0.207468 81.8655 -0.192884C81.8504 -0.178301 81.8657 -0.160347 81.9092 -0.141736C81.9526 -0.123125 82.0218 -0.104873 82.1062 -0.0897378C82.1906 -0.0746031 82.2858 -0.0634092 82.3771 -0.0578532C82.7222 -0.0532027 83.0513 -0.055564 83.3602 -0.0649106V-0.0649106ZM117.413 0.00340401C117.428 -0.0199624 117.446 -0.0480015 117.275 -0.0677077C117.23 -0.0777116 117.178 -0.0863141 117.123 -0.0926559C117.067 -0.0989977 117.012 -0.102851 116.961 -0.103831C116.961 -0.103831 116.944 -0.0757901 116.932 -0.057097L117.413 0.00340401ZM141.06 38.7968L140.68 38.8182L140.85 38.8379L141.302 38.8497L141.06 38.7968ZM275.052 8.2148C274.91 8.19838 274.767 8.18195 274.746 8.21467C274.716 8.21973 274.698 8.22705 274.692 8.23599C274.686 8.24493 274.694 8.25524 274.714 8.26607C274.714 8.26607 274.913 8.28907 274.998 8.29892L275.052 8.2148ZM252.868 8.47644C252.774 8.47456 252.69 8.47675 252.619 8.48288C252.619 8.48288 252.602 8.51092 252.602 8.51092L252.886 8.54376L252.868 8.47644ZM59.5406 15.1574C59.4306 15.1403 59.3139 15.1269 59.1987 15.118L59.0562 15.1015C59.0562 15.1015 59.2093 15.1493 59.2948 15.1591C59.3802 15.169 59.4492 15.1569 59.5406 15.1574Z" fill="#DF6951"/>
</g>
</svg>
