<svg width="152" height="139" viewBox="0 0 152 139" fill="none" xmlns="http://www.w3.org/2000/svg">
<path d="M43.6516 66.4013C43.6516 75.372 50.9238 82.6443 59.8946 82.6443L84.259 82.6443C86.7509 82.6443 88.771 80.6242 88.771 78.1323L88.771 47.4511C88.771 42.4674 84.7308 38.4273 79.7471 38.4273L48.1635 38.4273C45.6716 38.4273 43.6516 40.4473 43.6516 42.9392L43.6516 66.4013Z" fill="#FFF1DA"/>
<path d="M87.4931 78.9818C86.2674 79.2563 85.0735 79.7649 83.9856 80.4754C81.1514 82.2814 79.5025 84.8593 80.3029 86.2328C81.1032 87.6064 84.0496 87.2551 86.8838 85.4491C87.9863 84.7637 88.9657 83.8877 89.7618 82.8752C90.1312 82.386 90.1975 81.7765 89.9311 81.3209L88.8914 79.5365C88.6268 79.0794 88.0781 78.862 87.4931 78.9818Z" fill="#D5D6DB"/>
<path d="M80.376 54.6236C79.4872 54.8228 78.6214 55.1917 77.8325 55.707C75.7779 57.0162 74.5815 58.8854 75.1614 59.8805C75.7413 60.8757 77.8785 60.6207 79.9329 59.3117C80.7323 58.8144 81.4425 58.1789 82.0198 57.4446C82.2873 57.0901 82.3353 56.6485 82.1422 56.3181L81.3893 55.0261C81.1978 54.6948 80.8002 54.5368 80.376 54.6236Z" fill="#D5D6DB"/>
<path d="M68.8126 55.6436C68.6148 55.6216 68.4038 55.6743 68.2208 55.7912L63.3947 58.8667C62.991 59.1232 62.8295 59.6171 63.0342 59.9701C63.0811 60.0509 63.1452 60.12 63.223 60.1733L75.1179 68.3714L91.2106 58.116L68.8126 55.6436Z" fill="#029BC5"/>
<path d="M119.686 54.4844L75.8918 82.0543L49.9818 92.3645L36.768 94.991L35.3143 92.521L108.313 47.4498C110.489 46.1008 112.912 45.2729 115.338 45.0499C116.401 44.9579 117.45 44.9933 118.462 45.1546C119.359 45.2906 120.21 45.553 120.989 45.9338C121.859 46.3654 123.515 46.4152 124.051 47.275C124.053 47.2736 125.318 51.221 119.686 54.4844V54.4844Z" fill="#E1E6E9"/>
<path d="M76.4724 78.4063L57.5265 108.609C57.2899 109.033 57.4303 109.509 57.8399 109.67C58.0913 109.77 58.3989 109.73 58.6574 109.566L63.4797 106.507C64.4073 105.918 65.2285 105.171 65.8928 104.31L102.635 61.1137L76.4724 78.4063Z" fill="#029BC5"/>
<path d="M28.6642 77.3979C28.3481 77.2899 27.972 77.3459 27.6546 77.5481L23.6683 80.0869C23.1251 80.4326 22.9087 81.0971 23.1847 81.5715C23.2373 81.6616 23.3056 81.741 23.3875 81.8064L34.5561 90.7512L46.2989 83.4164L28.6642 77.3979Z" fill="#029BC5"/>
<path d="M38.2995 92.3636L32.2883 100.782C32.2002 100.903 32.2209 101.055 32.3346 101.122C32.4165 101.169 32.5284 101.161 32.6194 101.1L36.3447 98.7391C36.3736 98.7207 36.3998 98.6977 36.4215 98.6715L45.2049 87.992L38.2995 92.3636Z" fill="#029BC5"/>
<path d="M117.743 45.5176C116.701 45.3503 115.621 45.3145 114.526 45.4107C113.461 46.9006 112.78 48.5743 112.551 50.2649C112.534 50.6044 112.808 50.8489 113.162 50.8108C113.273 50.7988 113.382 50.7601 113.481 50.6981L120.346 46.3267C119.543 45.9309 118.667 45.6585 117.743 45.5176Z" fill="#029BC5"/>
<path d="M102.782 53.5562L107.264 50.7254L111.439 57.8263L106.957 60.6571L102.782 53.5562Z" fill="#D5D6DB"/>
<path d="M99.9619 56.3646C99.4218 56.7067 99.2059 57.3644 99.4801 57.8333L99.9244 58.5931C100.217 59.0502 100.884 59.1305 101.415 58.7726C101.92 58.4316 102.123 57.812 101.88 57.3545L101.435 56.5947C101.161 56.1261 100.502 56.023 99.9619 56.3646V56.3646Z" fill="#3A556A"/>
<path d="M95.9333 58.8664C95.3932 59.2085 95.1773 59.8662 95.4515 60.3352L95.8957 61.095C96.188 61.552 96.8551 61.6324 97.3859 61.2744C97.8911 60.9335 98.0946 60.3138 97.8511 59.8563L97.4068 59.0965C97.1326 58.6281 96.4731 58.5249 95.9333 58.8664V58.8664Z" fill="#3A556A"/>
<path d="M91.9033 61.3691C91.3638 61.7116 91.1487 62.3685 91.4227 62.8371L91.8669 63.5968C92.1592 64.0539 92.8263 64.1342 93.3571 63.7762C93.8623 63.4353 94.0657 62.8157 93.8223 62.3582L93.378 61.5984C93.1038 61.1295 92.4437 61.0268 91.9033 61.3691V61.3691Z" fill="#3A556A"/>
<path d="M87.8748 63.8708C87.3353 64.2134 87.1202 64.8703 87.3941 65.3389L87.8384 66.0986C88.1306 66.5557 88.7978 66.636 89.3286 66.2781C89.8338 65.9371 90.0372 65.3175 89.7938 64.86L89.3495 64.1002C89.0751 63.6313 88.4149 63.5287 87.8748 63.8708V63.8708Z" fill="#3A556A"/>
<path d="M83.8466 66.3728C83.3068 66.7156 83.0915 67.3727 83.3657 67.8415L83.8102 68.6016C84.0842 69.0702 84.7441 69.1728 85.2841 68.8308C85.824 68.4888 86.0396 67.8317 85.7656 67.3631L85.3211 66.603C85.0477 66.134 84.3881 66.0307 83.8478 66.3721C83.8473 66.3724 83.8471 66.3725 83.8466 66.3728Z" fill="#3A556A"/>
<path d="M79.818 68.8747C79.2781 69.2174 79.0629 69.8746 79.3371 70.3433L79.7816 71.1034C80.0556 71.572 80.7155 71.6747 81.2554 71.3327C81.7954 70.9907 82.011 70.3336 81.7369 69.865L81.2924 69.1049C81.0191 68.6358 80.3594 68.5325 79.8191 68.8739C79.8187 68.8742 79.8182 68.8745 79.818 68.8747Z" fill="#3A556A"/>
<path d="M75.7892 71.3766C75.2493 71.7193 75.0341 72.3764 75.3082 72.8452L75.7528 73.6053C76.0275 74.0734 76.6877 74.175 77.227 73.8326C77.7655 73.4907 77.9806 72.835 77.7079 72.367L77.2634 71.6069C76.9895 71.138 76.3296 71.0348 75.7892 71.3766Z" fill="#3A556A"/>
<path d="M71.7604 73.8784C71.2205 74.2212 71.0053 74.8783 71.2794 75.3471L71.7239 76.1072C71.9987 76.5754 72.6588 76.6769 73.1982 76.3345C73.7367 75.9926 73.9518 75.3369 73.6791 74.8689L73.2346 74.1088C72.9606 73.6398 72.3008 73.5367 71.7604 73.8784Z" fill="#3A556A"/>
<path d="M67.7319 76.3802C67.192 76.723 66.9768 77.3801 67.2509 77.8489L67.6954 78.609C67.9701 79.0771 68.6303 79.1787 69.1697 78.8362C69.7082 78.4944 69.9233 77.8387 69.6505 77.3707L69.206 76.6106C68.9319 76.1418 68.272 76.0386 67.7319 76.3802Z" fill="#3A556A"/>
<path d="M63.7019 78.8827C63.162 79.2247 62.9464 79.8818 63.2204 80.3504L63.221 80.3514L63.6655 81.1115C63.9402 81.5797 64.6004 81.6813 65.1398 81.3388C65.6783 80.997 65.8934 80.3412 65.6206 79.8732L65.1761 79.1131C64.9022 78.6442 64.2424 78.541 63.7019 78.8827Z" fill="#3A556A"/>
<path d="M59.6744 81.3839C59.1345 81.7259 58.9189 82.383 59.1929 82.8515L59.1935 82.8525L59.638 83.6126C59.9127 84.0808 60.5729 84.1823 61.1123 83.8399C61.6508 83.4981 61.8659 82.8423 61.5932 82.3743L61.1486 81.6142C60.8745 81.1455 60.2146 81.0423 59.6744 81.3839Z" fill="#3A556A"/>
</svg>
