<svg width="19" height="19" viewBox="0 0 19 19" fill="none" xmlns="http://www.w3.org/2000/svg">
<g clip-path="url(#clip0_38_27)">
<path d="M10.9891 9.91446L1.92591 18.6417C1.50149 18.3516 1.24951 17.8692 1.25396 17.3551V2.47379C1.24951 1.95976 1.50149 1.4773 1.92591 1.18726L10.9891 9.91446Z" fill="#2196F3"/>
<path d="M14.1604 6.86601L10.9891 9.91439L1.9259 1.18718C1.96005 1.16072 1.99562 1.1361 2.03242 1.11343C2.51142 0.823115 3.10972 0.813743 3.59759 1.08885L14.1604 6.86601Z" fill="#4CAF50"/>
<path d="M18.0037 9.91434C18.0096 10.4946 17.6943 11.0306 17.1842 11.3074L14.1604 12.9627L10.9891 9.91434L14.1604 6.86597L17.1842 8.52125C17.6943 8.79805 18.0096 9.33405 18.0037 9.91434Z" fill="#F0BB1F"/>
<path d="M14.1604 12.9627L3.59759 18.7398C3.10865 19.0107 2.51261 19.0013 2.03242 18.7153C1.99562 18.6926 1.96005 18.668 1.9259 18.6415L10.9891 9.91431L14.1604 12.9627Z" fill="#F15A2B"/>
</g>
<defs>
<clipPath id="clip0_38_27">
<rect width="18.0478" height="18.0478" fill="white" transform="translate(0.604919 0.888916)"/>
</clipPath>
</defs>
</svg>
