<svg width="19" height="17" viewBox="0 0 19 17" fill="none" xmlns="http://www.w3.org/2000/svg">
<path d="M17.2941 1.60618C16.3606 0.602796 15.0525 0.0318846 13.682 0.0297682C12.3104 0.0313555 11.001 0.601964 10.0661 1.60554L9.74743 1.94224L9.42879 1.60554C7.57362 -0.39114 4.45103 -0.505806 2.45439 1.34937C2.36591 1.43161 2.28046 1.51702 2.19822 1.60554C0.230231 3.72826 0.230231 7.00882 2.19822 9.13154L9.27917 16.5989C9.52415 16.8575 9.93239 16.8685 10.191 16.6236C10.1995 16.6156 10.2077 16.6073 10.2157 16.5989L17.2941 9.13154C19.2619 7.00905 19.2619 3.72867 17.2941 1.60618ZM16.3608 8.24335H16.3601L9.74743 15.2179L3.13414 8.24335C1.63071 6.6214 1.63071 4.11504 3.13414 2.49308C4.49944 1.01331 6.80587 0.920527 8.28565 2.28582C8.35749 2.35211 8.42662 2.42124 8.49291 2.49308L9.27917 3.32258C9.53828 3.58003 9.95662 3.58003 10.2157 3.32258L11.002 2.49373C12.3673 1.01395 14.6737 0.921169 16.1535 2.28647C16.2253 2.35276 16.2945 2.42188 16.3608 2.49373C17.8773 4.11825 17.8884 6.62918 16.3608 8.24335Z" fill="#4152CA"/>
</svg>
