<svg width="44" height="45" viewBox="0 0 44 45" fill="none" xmlns="http://www.w3.org/2000/svg">
<rect x="0.844147" y="0.865845" width="42.4122" height="43.3146" rx="11.731" fill="#F0BB1F"/>
<path d="M13.0666 16.6356C12.799 16.6356 12.5801 16.4166 12.5752 16.149V13.0884C12.5752 12.8159 12.7942 12.5969 13.0666 12.5969H16.1272C16.3949 12.5969 16.6138 12.8159 16.6138 13.0884V14.154H28.3891V13.0884C28.3891 12.8208 28.6081 12.6018 28.8757 12.5969H31.9363C32.2039 12.5969 32.4229 12.8159 32.4277 13.0884V16.149C32.4277 16.4166 32.2088 16.6356 31.9363 16.6356H30.8707V28.4108H31.9363C32.2039 28.4108 32.4229 28.6298 32.4277 28.8974V31.958C32.4277 32.2256 32.2088 32.4446 31.9363 32.4495H28.8757C28.6081 32.4495 28.3891 32.2305 28.3891 31.958V30.8924H16.6138V31.958C16.6138 32.2256 16.3949 32.4446 16.1272 32.4495H13.0666C12.799 32.4495 12.5801 32.2305 12.5752 31.958V28.8974C12.5752 28.6298 12.7942 28.4108 13.0666 28.4108H14.1323V16.6356H13.0666ZM31.4546 15.6624V13.5701H29.3623V15.6624H31.4546ZM29.3623 31.4763H31.4546V29.384H29.3623V31.4763ZM16.6138 28.8974V29.9192H28.3891V28.8974C28.3891 28.6298 28.6081 28.4108 28.8757 28.4108H29.8975V16.6356H28.8757C28.6081 16.6356 28.3891 16.4166 28.3891 16.149V15.1271H16.6138V16.149C16.6138 16.4166 16.3949 16.6356 16.1272 16.6356H15.1054V28.4108H16.1272C16.3949 28.4108 16.6138 28.6298 16.6138 28.8974ZM13.5484 29.384V31.4763H15.6407V29.384H13.5484ZM15.6407 15.6624V13.5701H13.5484V15.6624H15.6407Z" fill="white"/>
</svg>
