<svg width="44" height="45" viewBox="0 0 44 45" fill="none" xmlns="http://www.w3.org/2000/svg">
<rect x="0.844147" y="0.93335" width="42.4122" height="43.3146" rx="11.731" fill="#F15A2B"/>
<path d="M30.4591 29.7455C30.0528 29.7538 29.6538 29.6376 29.3156 29.4124C29.0639 29.2479 28.7696 29.1603 28.4689 29.1603C28.1682 29.1603 27.874 29.2479 27.6222 29.4124C27.2806 29.6299 26.884 29.7455 26.4789 29.7455C26.0739 29.7455 25.6773 29.6299 25.3356 29.4124C25.0839 29.2478 24.7896 29.1601 24.4888 29.1601C24.188 29.1601 23.8937 29.2478 23.642 29.4124C23.3003 29.6299 22.9037 29.7455 22.4987 29.7455C22.0937 29.7455 21.697 29.6299 21.3554 29.4124C21.1038 29.2479 20.8097 29.1602 20.5091 29.1602C20.2085 29.1602 19.9144 29.2479 19.6629 29.4124C19.3531 29.6183 18.9916 29.7327 18.6198 29.7425L18.5993 29.1572C18.874 29.1507 19.1407 29.0638 19.3664 28.9073C19.708 28.6898 20.1045 28.5743 20.5094 28.5743C20.9143 28.5743 21.3109 28.6898 21.6524 28.9073C21.9042 29.0718 22.1984 29.1595 22.4991 29.1595C22.7999 29.1595 23.0941 29.0718 23.3458 28.9073C23.6875 28.6896 24.0842 28.574 24.4894 28.574C24.8945 28.574 25.2913 28.6896 25.633 28.9073C25.8847 29.0718 26.1789 29.1595 26.4797 29.1595C26.7804 29.1595 27.0746 29.0718 27.3264 28.9073C27.668 28.6898 28.0646 28.5743 28.4697 28.5743C28.8747 28.5743 29.2713 28.6898 29.613 28.9073C29.8653 29.0722 30.1602 29.1601 30.4617 29.1601C30.7632 29.1601 31.0581 29.0722 31.3104 28.9073C31.6483 28.6828 32.0466 28.5668 32.4521 28.5748V29.1601C32.1502 29.1519 31.8535 29.2401 31.6051 29.4121C31.2661 29.6376 30.8662 29.7539 30.4591 29.7455V29.7455Z" fill="white"/>
<path d="M14.5409 29.7454C14.1348 29.7538 13.7358 29.6375 13.3978 29.4123C13.1495 29.2402 12.8528 29.1518 12.5508 29.16V28.5747C12.957 28.5663 13.3561 28.6825 13.6942 28.9078C13.9424 29.0799 14.239 29.1683 14.5409 29.16C14.843 29.1683 15.1397 29.0798 15.3879 28.9075C15.7253 28.6823 16.1237 28.5662 16.5293 28.5747C16.925 28.5658 17.3142 28.6767 17.6458 28.8928L17.3505 29.398C17.1083 29.235 16.8212 29.1518 16.5293 29.16C16.2285 29.1519 15.933 29.2401 15.6858 29.4117C15.3474 29.6376 14.9477 29.7541 14.5409 29.7454V29.7454Z" fill="white"/>
<path d="M30.4599 27.6965C30.0534 27.7048 29.6541 27.5886 29.3156 27.3634C29.0636 27.1988 28.7692 27.1111 28.4682 27.1111C28.1672 27.1111 27.8727 27.1988 27.6208 27.3634C27.2791 27.5809 26.8826 27.6964 26.4776 27.6964C26.0727 27.6964 25.6761 27.5809 25.3345 27.3634C25.0828 27.1989 24.7887 27.1113 24.4881 27.1113C24.1874 27.1113 23.8933 27.1989 23.6417 27.3634C23.3001 27.581 22.9035 27.6965 22.4985 27.6965C22.0935 27.6965 21.697 27.581 21.3554 27.3634C21.1038 27.1989 20.8096 27.1113 20.509 27.1113C20.2083 27.1113 19.9142 27.1989 19.6626 27.3634C19.3245 27.5887 18.9256 27.7049 18.5194 27.6965C18.1133 27.7049 17.7143 27.5887 17.3763 27.3634C17.1282 27.1913 16.8317 27.1029 16.5299 27.1112C16.2282 27.103 15.9317 27.1914 15.6838 27.3634C15.3463 27.5884 14.9479 27.7047 14.5424 27.6965C14.1362 27.7049 13.7371 27.5887 13.3989 27.3634C13.1504 27.191 12.8532 27.1026 12.5508 27.1112V26.5258C12.9569 26.5174 13.3559 26.6337 13.694 26.8589C13.9422 27.031 14.2389 27.1194 14.5409 27.1112C14.8426 27.1194 15.1391 27.031 15.387 26.8589C15.7245 26.6339 16.1229 26.5177 16.5284 26.5258C16.9349 26.5172 17.3342 26.6335 17.6725 26.8589C17.9206 27.0311 18.2172 27.1195 18.5191 27.1112C18.821 27.1195 19.1177 27.0311 19.3658 26.8589C19.7074 26.6413 20.104 26.5258 20.509 26.5258C20.914 26.5258 21.3105 26.6413 21.6521 26.8589C21.9038 27.0235 22.198 27.1111 22.4987 27.1111C22.7994 27.1111 23.0935 27.0235 23.3452 26.8589C23.6868 26.6413 24.0834 26.5258 24.4884 26.5258C24.8934 26.5258 25.2899 26.6413 25.6315 26.8589C25.8832 27.0235 26.1774 27.1111 26.4781 27.1111C26.7788 27.1111 27.0729 27.0235 27.3246 26.8589C27.6665 26.6414 28.0634 26.5259 28.4686 26.5259C28.8739 26.5259 29.2707 26.6414 29.6127 26.8589C29.8648 27.0234 30.1593 27.111 30.4604 27.111C30.7614 27.111 31.056 27.0234 31.3081 26.8589C31.6465 26.6338 32.0457 26.5176 32.4521 26.5258V27.1112C32.1495 27.1026 31.8522 27.191 31.6034 27.3634C31.2651 27.5884 30.8661 27.7046 30.4599 27.6965V27.6965Z" fill="white"/>
<path d="M30.4591 25.6481C30.0528 25.6564 29.6538 25.5401 29.3156 25.315C29.0673 25.1429 28.7706 25.0545 28.4686 25.0627C28.247 25.0551 28.0269 25.1024 27.828 25.2003L27.5699 24.6735C27.8493 24.5365 28.1576 24.469 28.4686 24.4765C28.8753 24.4682 29.2748 24.5848 29.6133 24.8105C29.8656 24.9754 30.1605 25.0633 30.462 25.0633C30.7635 25.0633 31.0584 24.9754 31.3107 24.8105C31.6484 24.5858 32.0466 24.4696 32.4521 24.4774V25.0627C32.1502 25.0545 31.8535 25.1427 31.6051 25.3147C31.2661 25.5402 30.8662 25.6565 30.4591 25.6481Z" fill="white"/>
<path d="M26.4759 25.648C26.0703 25.6565 25.6719 25.5404 25.3345 25.3153C25.0827 25.1506 24.7884 25.0629 24.4876 25.0629C24.1868 25.0629 23.8925 25.1506 23.6408 25.3153C23.2991 25.5328 22.9025 25.6483 22.4975 25.6483C22.0925 25.6483 21.6959 25.5328 21.3542 25.3153C21.1025 25.1507 20.8083 25.0631 20.5075 25.0631C20.2068 25.0631 19.9126 25.1507 19.6608 25.3153C19.3228 25.5401 18.9241 25.6562 18.5183 25.648C18.1121 25.6564 17.7132 25.5402 17.3751 25.315C17.1268 25.1429 16.8301 25.0545 16.5281 25.0627C16.2273 25.0546 15.9318 25.1428 15.6847 25.3144C15.3465 25.54 14.9473 25.6565 14.5409 25.648C14.1348 25.6564 13.7358 25.5402 13.3978 25.315C13.1495 25.1429 12.8528 25.0545 12.5508 25.0627V24.4774C12.957 24.4689 13.3561 24.5852 13.6942 24.8104C13.9424 24.9826 14.239 25.071 14.5409 25.0627C14.843 25.071 15.1397 24.9825 15.3879 24.8101C15.7253 24.585 16.1237 24.4688 16.5293 24.4774C16.9354 24.469 17.3344 24.5852 17.6725 24.8104C17.9206 24.9826 18.2172 25.071 18.5191 25.0627C18.8211 25.0709 19.1178 24.9825 19.3661 24.8104C19.7078 24.5929 20.1044 24.4774 20.5094 24.4774C20.9144 24.4774 21.3111 24.5929 21.6527 24.8104C21.9044 24.975 22.1987 25.0626 22.4994 25.0626C22.8001 25.0626 23.0944 24.975 23.3461 24.8104C23.6878 24.5927 24.0845 24.4771 24.4897 24.4771C24.8948 24.4771 25.2916 24.5927 25.6333 24.8104C25.8911 24.9838 26.1969 25.072 26.5075 25.0624C26.5301 25.0627 26.5526 25.0615 26.5751 25.0589L26.6529 25.639C26.5942 25.6458 26.535 25.6488 26.4759 25.648V25.648Z" fill="white"/>
<path d="M30.4599 23.5991C30.0534 23.6074 29.6541 23.4912 29.3156 23.266C29.0636 23.1014 28.7692 23.0137 28.4682 23.0137C28.1672 23.0137 27.8727 23.1014 27.6208 23.266C27.2791 23.4835 26.8826 23.599 26.4776 23.599C26.0727 23.599 25.6761 23.4835 25.3345 23.266C25.0828 23.1015 24.7887 23.0139 24.4881 23.0139C24.1874 23.0139 23.8933 23.1015 23.6417 23.266C23.3001 23.4836 22.9035 23.5991 22.4985 23.5991C22.0935 23.5991 21.697 23.4836 21.3554 23.266C21.1038 23.1015 20.8096 23.0139 20.509 23.0139C20.2083 23.0139 19.9142 23.1015 19.6626 23.266C19.3245 23.4913 18.9256 23.6075 18.5194 23.5991C18.1133 23.6075 17.7143 23.4913 17.3763 23.266C17.1282 23.0939 16.8317 23.0055 16.5299 23.0138C16.2282 23.0056 15.9317 23.094 15.6838 23.266C15.3463 23.491 14.9479 23.6073 14.5424 23.5991C14.1362 23.6075 13.7371 23.4913 13.3989 23.266C13.1504 23.0936 12.8532 23.0052 12.5508 23.0138V22.4284C12.9569 22.42 13.3559 22.5363 13.694 22.7615C13.9422 22.9336 14.2389 23.022 14.5409 23.0138C14.8426 23.022 15.1391 22.9336 15.387 22.7615C15.7245 22.5365 16.1229 22.4203 16.5284 22.4284C16.9349 22.4198 17.3342 22.536 17.6725 22.7615C17.9206 22.9336 18.2172 23.022 18.5191 23.0138C18.821 23.022 19.1177 22.9336 19.3658 22.7615C19.7074 22.5439 20.104 22.4284 20.509 22.4284C20.914 22.4284 21.3105 22.5439 21.6521 22.7615C21.9038 22.9261 22.198 23.0137 22.4987 23.0137C22.7994 23.0137 23.0935 22.9261 23.3452 22.7615C23.6868 22.5439 24.0834 22.4284 24.4884 22.4284C24.8934 22.4284 25.2899 22.5439 25.6315 22.7615C25.8832 22.9261 26.1774 23.0137 26.4781 23.0137C26.7788 23.0137 27.0729 22.9261 27.3246 22.7615C27.6665 22.544 28.0634 22.4285 28.4686 22.4285C28.8739 22.4285 29.2707 22.544 29.6127 22.7615C29.8648 22.926 30.1593 23.0136 30.4604 23.0136C30.7614 23.0136 31.056 22.926 31.3081 22.7615C31.6465 22.5364 32.0457 22.4202 32.4521 22.4284V23.0138C32.1495 23.0052 31.8522 23.0936 31.6034 23.266C31.2651 23.491 30.8661 23.6072 30.4599 23.5991V23.5991Z" fill="white"/>
<path d="M26.2894 23.3509L25.7372 23.1571C25.8794 22.7485 25.9375 22.3153 25.908 21.8836C25.8785 21.4519 25.7619 21.0307 25.5654 20.6452L23.5551 16.7085C23.5352 16.6697 23.5243 16.6268 23.5232 16.5832C23.522 16.5396 23.5306 16.4962 23.5484 16.4564C23.5661 16.4165 23.5926 16.3811 23.6258 16.3528C23.659 16.3244 23.6981 16.3039 23.7403 16.2927L27.7466 15.2244C27.8772 15.1903 27.989 15.106 28.0577 14.9898C28.1264 14.8737 28.1465 14.7351 28.1135 14.6042C28.0806 14.4734 27.9973 14.3608 27.8818 14.2911C27.7662 14.2213 27.6279 14.2 27.4967 14.2317L22.6478 15.3907C22.5441 15.4152 22.4475 15.4632 22.3654 15.531C22.2833 15.5989 22.2179 15.6847 22.1743 15.7819C22.1307 15.8791 22.11 15.985 22.1139 16.0914C22.1178 16.1978 22.1462 16.302 22.1968 16.3957L23.6367 19.0706C23.6732 19.1386 23.6814 19.2183 23.6595 19.2923C23.6376 19.3663 23.5873 19.4286 23.5197 19.4657L21.6612 20.4901L21.3788 19.9773L22.9832 19.0929L21.682 16.6731C21.5889 16.5004 21.5368 16.3085 21.5297 16.1125C21.5226 15.9164 21.5607 15.7213 21.641 15.5422C21.7214 15.3632 21.8418 15.2051 21.9931 15.08C22.1443 14.955 22.3222 14.8664 22.5132 14.8211L27.3597 13.6625C27.6419 13.5912 27.9408 13.6349 28.1907 13.784C28.4406 13.9331 28.6211 14.1753 28.6924 14.4575C28.7637 14.7396 28.72 15.0386 28.5709 15.2885C28.4218 15.5384 28.1795 15.7189 27.8974 15.7902L24.2408 16.7647L26.0869 20.3786C26.3194 20.8347 26.4572 21.3332 26.492 21.844C26.5268 22.3548 26.4579 22.8674 26.2894 23.3509V23.3509Z" fill="white"/>
<path d="M20.3558 20.5457L16.7993 22.5055L17.0816 23.0179L20.6382 21.0581L20.3558 20.5457Z" fill="white"/>
<path d="M28.9401 21.404C28.506 21.404 28.0816 21.2753 27.7206 21.0341C27.3597 20.7929 27.0783 20.4501 26.9122 20.049C26.7461 19.6479 26.7026 19.2066 26.7873 18.7808C26.872 18.355 27.081 17.9639 27.388 17.6569C27.695 17.35 28.0861 17.1409 28.5119 17.0562C28.9377 16.9715 29.379 17.015 29.7801 17.1811C30.1812 17.3473 30.524 17.6286 30.7652 17.9896C31.0064 18.3505 31.1351 18.7749 31.1351 19.209C31.1345 19.791 30.903 20.3489 30.4915 20.7604C30.08 21.172 29.5221 21.4034 28.9401 21.404V21.404ZM28.9401 17.5994C28.6218 17.5994 28.3105 17.6938 28.0458 17.8706C27.7811 18.0475 27.5748 18.2989 27.453 18.593C27.3311 18.8872 27.2993 19.2108 27.3614 19.5231C27.4235 19.8353 27.5768 20.1221 27.8019 20.3472C28.027 20.5724 28.3138 20.7257 28.6261 20.7878C28.9383 20.8499 29.262 20.818 29.5561 20.6962C29.8502 20.5743 30.1016 20.368 30.2785 20.1033C30.4554 19.8386 30.5498 19.5274 30.5498 19.209C30.5492 18.7823 30.3795 18.3732 30.0777 18.0714C29.776 17.7697 29.3669 17.5999 28.9401 17.5994V17.5994Z" fill="white"/>
</svg>
