<svg width="44" height="44" viewBox="0 0 44 44" fill="none" xmlns="http://www.w3.org/2000/svg">
<rect x="0.844147" y="0.000732422" width="42.4122" height="43.3146" rx="11.731" fill="#006380"/>
<path d="M15.7336 23.5757C15.4658 23.5757 15.2041 23.6551 14.9815 23.8038C14.759 23.9525 14.5855 24.1639 14.483 24.4113C14.3806 24.6586 14.3538 24.9308 14.406 25.1933C14.4582 25.4559 14.5871 25.6971 14.7764 25.8864C14.9657 26.0757 15.2069 26.2046 15.4695 26.2568C15.7321 26.3091 16.0042 26.2823 16.2516 26.1798C16.4989 26.0774 16.7103 25.9039 16.859 25.6813C17.0078 25.4587 17.0871 25.197 17.0871 24.9293C17.0871 24.5703 16.9445 24.226 16.6907 23.9721C16.4368 23.7183 16.0925 23.5757 15.7336 23.5757ZM15.7336 25.6061C15.5997 25.6061 15.4689 25.5664 15.3576 25.492C15.2463 25.4176 15.1595 25.3119 15.1083 25.1883C15.0571 25.0646 15.0437 24.9285 15.0698 24.7972C15.0959 24.6659 15.1603 24.5454 15.255 24.4507C15.3496 24.3561 15.4702 24.2916 15.6015 24.2655C15.7328 24.2394 15.8689 24.2528 15.9926 24.304C16.1162 24.3552 16.2219 24.442 16.2963 24.5533C16.3707 24.6646 16.4103 24.7954 16.4103 24.9293C16.4103 25.1088 16.339 25.2809 16.2121 25.4078C16.0852 25.5348 15.9131 25.6061 15.7336 25.6061Z" fill="white"/>
<path d="M29.2694 23.5757C29.0017 23.5757 28.74 23.6551 28.5174 23.8038C28.2948 23.9525 28.1213 24.1639 28.0188 24.4113C27.9164 24.6586 27.8896 24.9308 27.9418 25.1933C27.994 25.4559 28.1229 25.6971 28.3122 25.8864C28.5015 26.0757 28.7427 26.2046 29.0053 26.2568C29.2679 26.3091 29.54 26.2823 29.7874 26.1798C30.0347 26.0774 30.2461 25.9039 30.3948 25.6813C30.5436 25.4587 30.6229 25.197 30.6229 24.9293C30.6229 24.5703 30.4803 24.226 30.2265 23.9721C29.9726 23.7183 29.6284 23.5757 29.2694 23.5757ZM29.2694 25.6061C29.1355 25.6061 29.0047 25.5664 28.8934 25.492C28.7821 25.4176 28.6953 25.3119 28.6441 25.1883C28.5929 25.0646 28.5795 24.9285 28.6056 24.7972C28.6317 24.6659 28.6962 24.5454 28.7908 24.4507C28.8855 24.3561 29.006 24.2916 29.1373 24.2655C29.2686 24.2394 29.4047 24.2528 29.5284 24.304C29.652 24.3552 29.7577 24.442 29.8321 24.5533C29.9065 24.6646 29.9462 24.7954 29.9462 24.9293C29.9462 25.1088 29.8749 25.2809 29.7479 25.4078C29.621 25.5348 29.4489 25.6061 29.2694 25.6061Z" fill="white"/>
<path d="M19.4559 25.2677H25.547V25.9445H19.4559V25.2677Z" fill="white"/>
<path d="M19.4559 23.9141H25.547V24.5909H19.4559V23.9141Z" fill="white"/>
<path d="M21.4863 18.8381H23.5167V19.5149H21.4863V18.8381Z" fill="white"/>
<path d="M32.6533 21.8837V21.2069C32.6525 20.9379 32.5453 20.6801 32.3551 20.4899C32.1649 20.2997 31.9071 20.1925 31.6381 20.1917H30.2981L29.5976 17.735L29.3878 16.8991C29.3327 16.6796 29.2059 16.4849 29.0275 16.3457C28.8491 16.2065 28.6293 16.1309 28.4031 16.131H25.547V14.7774C25.5465 14.598 25.475 14.4262 25.3482 14.2994C25.2214 14.1726 25.0496 14.1011 24.8702 14.1006H20.1327C19.9534 14.1011 19.7815 14.1726 19.6547 14.2994C19.5279 14.4262 19.4564 14.598 19.4559 14.7774V16.131H16.5998C16.3736 16.1309 16.1538 16.2065 15.9754 16.3457C15.797 16.4849 15.6702 16.6796 15.6151 16.8991L15.4087 17.7316L14.7048 20.1917H13.3648C13.0958 20.1925 12.838 20.2997 12.6478 20.4899C12.4576 20.6801 12.3504 20.9379 12.3496 21.2069V21.8837C12.3501 22.0551 12.3942 22.2236 12.4777 22.3733C12.5611 22.5231 12.6812 22.6492 12.8267 22.7398C12.5208 23.0542 12.3496 23.4754 12.3496 23.9141V27.9748C12.3501 28.1168 12.3804 28.257 12.4387 28.3865C12.497 28.5159 12.582 28.6316 12.688 28.726V30.0052C12.6888 30.2742 12.796 30.5319 12.9862 30.7221C13.1764 30.9123 13.4342 31.0196 13.7032 31.0204H16.4103C16.6793 31.0196 16.9371 30.9123 17.1273 30.7221C17.3175 30.5319 17.4247 30.2742 17.4255 30.0052V28.99H27.5774V30.0052C27.5782 30.2742 27.6854 30.5319 27.8756 30.7221C28.0658 30.9123 28.3236 31.0196 28.5926 31.0204H31.2997C31.5687 31.0196 31.8265 30.9123 32.0167 30.7221C32.2069 30.5319 32.3141 30.2742 32.3149 30.0052V28.726C32.4209 28.6316 32.5059 28.5159 32.5642 28.3865C32.6225 28.257 32.6529 28.1168 32.6533 27.9748V23.9141C32.6533 23.4754 32.4821 23.0542 32.1762 22.7398C32.3217 22.6492 32.4418 22.5231 32.5253 22.3733C32.6087 22.2236 32.6528 22.0551 32.6533 21.8837V21.8837ZM20.1327 14.7774H24.8702V16.131H20.1327V14.7774ZM16.2716 17.0649C16.2897 16.9916 16.3319 16.9264 16.3914 16.8798C16.4509 16.8332 16.5243 16.8078 16.5998 16.8077H28.4031C28.4786 16.8078 28.552 16.8332 28.6115 16.8798C28.671 16.9264 28.7132 16.9916 28.7313 17.0649L28.8362 17.4845H16.1667L16.2716 17.0649ZM15.9873 18.1613H29.0156L30.1729 22.2221H20.4406C20.3611 21.7492 20.1166 21.3198 19.7504 21.0101C19.3843 20.7004 18.9203 20.5304 18.4407 20.5304C17.9612 20.5304 17.4971 20.7004 17.131 21.0101C16.7649 21.3198 16.5203 21.7492 16.4408 22.2221H14.83L15.9873 18.1613ZM19.7469 22.2221H17.1345C17.2084 21.9317 17.3769 21.6742 17.6135 21.4903C17.85 21.3064 18.1411 21.2066 18.4407 21.2066C18.7403 21.2066 19.0314 21.3064 19.268 21.4903C19.5045 21.6742 19.673 21.9317 19.7469 22.2221V22.2221ZM13.0264 21.2069C13.0264 21.1171 13.062 21.0311 13.1255 20.9676C13.189 20.9041 13.275 20.8685 13.3648 20.8685H14.5119L14.1262 22.2221H13.3648C13.275 22.2221 13.189 22.1864 13.1255 22.123C13.062 22.0595 13.0264 21.9734 13.0264 21.8837V21.2069ZM16.7487 30.0052C16.7487 30.0949 16.7131 30.181 16.6496 30.2445C16.5862 30.3079 16.5001 30.3436 16.4103 30.3436H13.7032C13.6134 30.3436 13.5274 30.3079 13.4639 30.2445C13.4004 30.181 13.3648 30.0949 13.3648 30.0052V28.99H16.7487V30.0052ZM31.6381 30.0052C31.6381 30.0949 31.6025 30.181 31.539 30.2445C31.4756 30.3079 31.3895 30.3436 31.2997 30.3436H28.5926C28.5028 30.3436 28.4168 30.3079 28.3533 30.2445C28.2898 30.181 28.2542 30.0949 28.2542 30.0052V28.99H31.6381V30.0052ZM31.9765 27.9748C31.9765 28.0645 31.9409 28.1506 31.8774 28.2141C31.814 28.2775 31.7279 28.3132 31.6381 28.3132H13.3648C13.275 28.3132 13.189 28.2775 13.1255 28.2141C13.062 28.1506 13.0264 28.0645 13.0264 27.9748V27.6364H31.9765V27.9748ZM31.9765 26.9596H13.0264V23.9141C13.0272 23.6451 13.1344 23.3873 13.3246 23.1971C13.5148 23.0069 13.7726 22.8997 14.0416 22.8989H30.9613C31.2303 22.8997 31.4881 23.0069 31.6783 23.1971C31.8685 23.3873 31.9757 23.6451 31.9765 23.9141V26.9596ZM31.9765 21.8837C31.9765 21.9734 31.9409 22.0595 31.8774 22.123C31.814 22.1864 31.7279 22.2221 31.6381 22.2221H30.8767L30.491 20.8685H31.6381C31.7279 20.8685 31.814 20.9041 31.8774 20.9676C31.9409 21.0311 31.9765 21.1171 31.9765 21.2069V21.8837Z" fill="white"/>
</svg>
