<svg width="15" height="15" viewBox="0 0 15 15" fill="none" xmlns="http://www.w3.org/2000/svg">
<g clip-path="url(#clip0_38_15)">
<path d="M12.4858 0.138184H2.27751C1.11145 0.138184 0.162537 1.0871 0.162537 2.25316V12.4614C0.162537 13.6278 1.11145 14.5764 2.27751 14.5764H12.4858C13.6521 14.5764 14.6007 13.6278 14.6007 12.4614V2.25316C14.6007 1.0871 13.6521 0.138184 12.4858 0.138184ZM13.7548 12.4614C13.7548 13.1611 13.1854 13.7304 12.4858 13.7304H2.27751C1.57788 13.7304 1.00853 13.1611 1.00853 12.4614V2.25316C1.00853 1.55352 1.57788 0.984172 2.27751 0.984172H12.4858C13.1854 0.984172 13.7548 1.55352 13.7548 2.25316V12.4614Z" fill="white"/>
<path d="M12.0346 1.8584C11.5682 1.8584 11.1886 2.23797 11.1886 2.70439C11.1886 3.17081 11.5682 3.55038 12.0346 3.55038C12.501 3.55038 12.8806 3.17081 12.8806 2.70439C12.8806 2.23797 12.501 1.8584 12.0346 1.8584Z" fill="white"/>
<path d="M7.38166 3.55029C5.28248 3.55029 3.57471 5.25806 3.57471 7.35724C3.57471 9.45642 5.28248 11.1642 7.38166 11.1642C9.48084 11.1642 11.1886 9.45642 11.1886 7.35724C11.1886 5.25806 9.48084 3.55029 7.38166 3.55029ZM7.38166 10.3182C5.7489 10.3182 4.4207 8.99 4.4207 7.35724C4.4207 5.72448 5.7489 4.39628 7.38166 4.39628C9.01441 4.39628 10.3426 5.72448 10.3426 7.35724C10.3426 8.99 9.01441 10.3182 7.38166 10.3182Z" fill="white"/>
</g>
<defs>
<clipPath id="clip0_38_15">
<rect width="14.4382" height="14.4382" fill="white" transform="translate(0.162537 0.138184)"/>
</clipPath>
</defs>
</svg>
