<svg width="105" height="32" viewBox="0 0 105 32" fill="none" xmlns="http://www.w3.org/2000/svg">
<path d="M67.3525 25.8743L75.9251 28.5815L83.1443 21.3624L92.1681 27.6791L101.643 25.8743L97.5825 12.7897L83.1443 17.3016L75.0228 12.7897L66.4501 14.1433L67.3525 25.8743Z" fill="#F1A501"/>
<path d="M0.503571 21.4201V19.4692L6.02438 18.4729V21.1711C6.05205 22.6378 6.42564 23.7447 7.14515 24.4919C7.89232 25.2114 8.87472 25.5711 10.0923 25.5711C11.2823 25.5711 12.2232 25.1837 12.915 24.4088C13.6345 23.634 13.9943 22.5962 13.9943 21.2956V0.955777H19.7226V21.2956C19.7226 24.0076 18.8232 26.3045 17.0245 28.1862C15.2257 30.068 12.9289 31.0089 10.1339 31.0089C7.22817 31.0089 4.88978 30.1372 3.11869 28.3938C1.37528 26.6227 0.503571 24.2981 0.503571 21.4201Z" fill="black"/>
<path d="M21.0389 24.8239C21.0389 23.0805 21.6062 21.683 22.7408 20.6314C23.8754 19.5799 25.3421 18.9157 27.1409 18.639L32.1636 17.8918C33.1875 17.7534 33.6994 17.2691 33.6994 16.4389C33.6994 15.6641 33.395 15.0276 32.7862 14.5295C32.2051 14.0314 31.3611 13.7823 30.2541 13.7823C29.0919 13.7823 28.1648 14.1006 27.473 14.737C26.8088 15.3735 26.4352 16.1622 26.3522 17.1031L21.454 16.0654C21.6478 14.2943 22.5195 12.7307 24.0692 11.3747C25.6189 10.0188 27.6667 9.34077 30.2126 9.34077C33.2567 9.34077 35.4982 10.0741 36.9372 11.5408C38.3762 12.9798 39.0957 14.8339 39.0957 17.1031V27.1485C39.0957 28.3661 39.1787 29.4454 39.3448 30.3863H34.2806C34.1422 29.7774 34.073 28.9611 34.073 27.9372C32.7724 29.9573 30.7661 30.9674 28.0541 30.9674C25.9509 30.9674 24.249 30.3586 22.9484 29.141C21.6754 27.9233 21.0389 26.4843 21.0389 24.8239ZM29.2164 26.8579C30.517 26.8579 31.5824 26.4982 32.4126 25.7787C33.2705 25.0315 33.6994 23.8139 33.6994 22.1258V21.2126L29.0919 21.9183C27.4038 22.1673 26.5598 23.0252 26.5598 24.4919C26.5598 25.156 26.795 25.7233 27.2654 26.1938C27.7359 26.6365 28.3862 26.8579 29.2164 26.8579Z" fill="black"/>
<path d="M60.7269 0.33313V26.6919C60.7269 28.0479 60.7822 29.2793 60.8929 30.3863H55.6212C55.4828 29.6944 55.4136 28.9057 55.4136 28.0202C54.9432 28.8781 54.196 29.5699 53.1721 30.0957C52.1759 30.6215 51.0136 30.8844 49.6853 30.8844C46.7796 30.8844 44.3859 29.8743 42.5041 27.8542C40.65 25.8063 39.7229 23.2327 39.7229 20.1333C39.7229 17.1169 40.6361 14.5848 42.4626 12.537C44.3167 10.4892 46.6689 9.4653 49.5192 9.4653C52.4526 9.4653 54.3759 10.3093 55.2891 11.9974V0.33313H60.7269ZM45.2852 20.1333C45.2852 21.9321 45.7557 23.3573 46.6966 24.4088C47.6375 25.4328 48.8551 25.9447 50.3494 25.9447C51.8161 25.9447 53.0199 25.4189 53.9608 24.3673C54.9017 23.3157 55.3721 21.8906 55.3721 20.0918C55.3721 18.3207 54.9017 16.9371 53.9608 15.9408C53.0199 14.9169 51.8161 14.405 50.3494 14.405C48.8828 14.405 47.6651 14.9169 46.6966 15.9408C45.7557 16.9647 45.2852 18.3622 45.2852 20.1333Z" fill="black"/>
<path d="M68.8745 24.4504C69.8984 25.4743 71.1299 25.9862 72.5689 25.9862C74.0079 25.9862 75.2255 25.4743 76.2217 24.4504C77.2456 23.4264 77.7576 22.0013 77.7576 20.1748C77.7576 18.3484 77.2456 16.9232 76.2217 15.8993C75.2255 14.8754 74.0079 14.3635 72.5689 14.3635C71.1299 14.3635 69.8984 14.8754 68.8745 15.8993C67.8783 16.9232 67.3801 18.3484 67.3801 20.1748C67.3801 22.0013 67.8783 23.4264 68.8745 24.4504ZM64.8896 12.4125C66.9374 10.3647 69.4971 9.34077 72.5689 9.34077C75.6406 9.34077 78.1865 10.3647 80.2067 12.4125C82.2545 14.4603 83.2784 17.0478 83.2784 20.1748C83.2784 23.3019 82.2545 25.8894 80.2067 27.9372C78.1865 29.985 75.6406 31.0089 72.5689 31.0089C69.4971 31.0089 66.9374 29.985 64.8896 27.9372C62.8694 25.8894 61.8593 23.3019 61.8593 20.1748C61.8593 17.0478 62.8694 14.4603 64.8896 12.4125Z" fill="black"/>
<path d="M89.7948 24.4504C90.8187 25.4743 92.0502 25.9862 93.4892 25.9862C94.9282 25.9862 96.1458 25.4743 97.1421 24.4504C98.166 23.4264 98.6779 22.0013 98.6779 20.1748C98.6779 18.3484 98.166 16.9232 97.1421 15.8993C96.1458 14.8754 94.9282 14.3635 93.4892 14.3635C92.0502 14.3635 90.8187 14.8754 89.7948 15.8993C88.7986 16.9232 88.3005 18.3484 88.3005 20.1748C88.3005 22.0013 88.7986 23.4264 89.7948 24.4504ZM85.8099 12.4125C87.8577 10.3647 90.4175 9.34077 93.4892 9.34077C96.5609 9.34077 99.1069 10.3647 101.127 12.4125C103.175 14.4603 104.199 17.0478 104.199 20.1748C104.199 23.3019 103.175 25.8894 101.127 27.9372C99.1069 29.985 96.5609 31.0089 93.4892 31.0089C90.4175 31.0089 87.8577 29.985 85.8099 27.9372C83.7897 25.8894 82.7796 23.3019 82.7796 20.1748C82.7796 17.0478 83.7897 14.4603 85.8099 12.4125Z" fill="black"/>
</svg>
