<svg width="134" height="30" viewBox="0 0 134 30" fill="none" xmlns="http://www.w3.org/2000/svg">
<path d="M16.8702 1.95966V21.8519C16.8702 24.3136 16.1159 26.2592 14.6071 27.6885C13.1247 29.1179 11.166 29.8326 8.73071 29.8326C6.29546 29.8326 4.32345 29.1179 2.81465 27.6885C1.33233 26.2592 0.59117 24.3136 0.59117 21.8519H5.15725C5.18372 23.0695 5.48813 24.0357 6.07047 24.7504C6.67928 25.4651 7.56603 25.8224 8.73071 25.8224C9.89539 25.8224 10.7821 25.4651 11.3909 24.7504C11.9998 24.0092 12.3042 23.0431 12.3042 21.8519V1.95966H16.8702ZM22.7249 18.5167C22.7249 16.3197 23.1749 14.3741 24.0749 12.68C25.0013 10.986 26.2454 9.67568 27.8071 8.74923C29.3953 7.79631 31.1424 7.31985 33.0482 7.31985C34.7688 7.31985 36.2643 7.66396 37.5349 8.35218C38.8319 9.01393 39.8642 9.84774 40.6319 10.8536V7.6772H45.198V29.5547H40.6319V26.2989C39.8642 27.3312 38.8187 28.1915 37.4952 28.8797C36.1717 29.5679 34.6629 29.912 32.9688 29.912C31.0894 29.912 29.3689 29.4356 27.8071 28.4827C26.2454 27.5033 25.0013 26.1533 24.0749 24.4327C23.1749 22.6857 22.7249 20.7137 22.7249 18.5167ZM40.6319 18.5961C40.6319 17.0873 40.3142 15.777 39.6789 14.6653C39.0701 13.5535 38.2628 12.7065 37.2569 12.1242C36.2511 11.5418 35.1658 11.2507 34.0011 11.2507C32.8364 11.2507 31.7512 11.5418 30.7453 12.1242C29.7394 12.68 28.9189 13.5138 28.2836 14.6256C27.6748 15.7109 27.3704 17.0079 27.3704 18.5167C27.3704 20.0255 27.6748 21.349 28.2836 22.4872C28.9189 23.6254 29.7394 24.4989 30.7453 25.1077C31.7776 25.6901 32.8629 25.9812 34.0011 25.9812C35.1658 25.9812 36.2511 25.6901 37.2569 25.1077C38.2628 24.5254 39.0701 23.6783 39.6789 22.5666C40.3142 21.4284 40.6319 20.1049 40.6319 18.5961ZM49.6344 18.5167C49.6344 16.3197 50.0844 14.3741 50.9843 12.68C51.9108 10.986 53.1549 9.67568 54.7166 8.74923C56.3048 7.79631 58.0651 7.31985 59.9974 7.31985C61.4268 7.31985 62.8297 7.63749 64.2061 8.27277C65.609 8.88158 66.7208 9.70215 67.5414 10.7345V0.172938H72.1074V29.5547H67.5414V26.2592C66.8002 27.318 65.7679 28.1915 64.4444 28.8797C63.1473 29.5679 61.6518 29.912 59.9577 29.912C58.0518 29.912 56.3048 29.4356 54.7166 28.4827C53.1549 27.5033 51.9108 26.1533 50.9843 24.4327C50.0844 22.6857 49.6344 20.7137 49.6344 18.5167ZM67.5414 18.5961C67.5414 17.0873 67.2237 15.777 66.5884 14.6653C65.9796 13.5535 65.1723 12.7065 64.1664 12.1242C63.1606 11.5418 62.0753 11.2507 60.9106 11.2507C59.7459 11.2507 58.6607 11.5418 57.6548 12.1242C56.6489 12.68 55.8284 13.5138 55.1931 14.6256C54.5843 15.7109 54.2799 17.0079 54.2799 18.5167C54.2799 20.0255 54.5843 21.349 55.1931 22.4872C55.8284 23.6254 56.6489 24.4989 57.6548 25.1077C58.6871 25.6901 59.7724 25.9812 60.9106 25.9812C62.0753 25.9812 63.1606 25.6901 64.1664 25.1077C65.1723 24.5254 65.9796 23.6783 66.5884 22.5666C67.2237 21.4284 67.5414 20.1049 67.5414 18.5961ZM87.5422 29.912C85.4775 29.912 83.6114 29.4488 81.9438 28.5224C80.2761 27.5694 78.9659 26.2459 78.013 24.5518C77.06 22.8313 76.5836 20.846 76.5836 18.5961C76.5836 16.3726 77.0733 14.4006 78.0527 12.68C79.032 10.9595 80.3688 9.63598 82.0629 8.70953C83.757 7.78308 85.6496 7.31985 87.7407 7.31985C89.8318 7.31985 91.7244 7.78308 93.4185 8.70953C95.1126 9.63598 96.4493 10.9595 97.4287 12.68C98.4081 14.4006 98.8978 16.3726 98.8978 18.5961C98.8978 20.8196 98.3949 22.7916 97.389 24.5121C96.3832 26.2327 95.0067 27.5694 93.2597 28.5224C91.5391 29.4488 89.6333 29.912 87.5422 29.912ZM87.5422 25.9812C88.7068 25.9812 89.7921 25.7033 90.798 25.1474C91.8303 24.5916 92.6641 23.7577 93.2994 22.646C93.9347 21.5343 94.2523 20.1843 94.2523 18.5961C94.2523 17.0079 93.9479 15.6711 93.3391 14.5859C92.7303 13.4741 91.923 12.6403 90.9171 12.0845C89.9112 11.5286 88.826 11.2507 87.6613 11.2507C86.4966 11.2507 85.4113 11.5286 84.4055 12.0845C83.4261 12.6403 82.6452 13.4741 82.0629 14.5859C81.4805 15.6711 81.1894 17.0079 81.1894 18.5961C81.1894 20.9519 81.7849 22.7784 82.9761 24.0754C84.1937 25.346 85.7157 25.9812 87.5422 25.9812ZM112.862 29.912C110.797 29.912 108.931 29.4488 107.263 28.5224C105.596 27.5694 104.286 26.2459 103.333 24.5518C102.38 22.8313 101.903 20.846 101.903 18.5961C101.903 16.3726 102.393 14.4006 103.372 12.68C104.352 10.9595 105.689 9.63598 107.383 8.70953C109.077 7.78308 110.969 7.31985 113.06 7.31985C115.152 7.31985 117.044 7.78308 118.738 8.70953C120.432 9.63598 121.769 10.9595 122.748 12.68C123.728 14.4006 124.218 16.3726 124.218 18.5961C124.218 20.8196 123.715 22.7916 122.709 24.5121C121.703 26.2327 120.326 27.5694 118.579 28.5224C116.859 29.4488 114.953 29.912 112.862 29.912ZM112.862 25.9812C114.027 25.9812 115.112 25.7033 116.118 25.1474C117.15 24.5916 117.984 23.7577 118.619 22.646C119.254 21.5343 119.572 20.1843 119.572 18.5961C119.572 17.0079 119.268 15.6711 118.659 14.5859C118.05 13.4741 117.243 12.6403 116.237 12.0845C115.231 11.5286 114.146 11.2507 112.981 11.2507C111.816 11.2507 110.731 11.5286 109.725 12.0845C108.746 12.6403 107.965 13.4741 107.383 14.5859C106.8 15.6711 106.509 17.0079 106.509 18.5961C106.509 20.9519 107.105 22.7784 108.296 24.0754C109.513 25.346 111.035 25.9812 112.862 25.9812ZM130.519 29.8326C129.698 29.8326 129.01 29.5547 128.454 28.9988C127.898 28.4429 127.62 27.7547 127.62 26.9342C127.62 26.1136 127.898 25.4254 128.454 24.8695C129.01 24.3136 129.698 24.0357 130.519 24.0357C131.313 24.0357 131.988 24.3136 132.544 24.8695C133.099 25.4254 133.377 26.1136 133.377 26.9342C133.377 27.7547 133.099 28.4429 132.544 28.9988C131.988 29.5547 131.313 29.8326 130.519 29.8326Z" fill="#181E4B"/>
</svg>
