<svg width="434" height="327" viewBox="0 0 434 327" fill="none" xmlns="http://www.w3.org/2000/svg">
<g opacity="0.1">
<mask id="mask0_37_90" style="mask-type:alpha" maskUnits="userSpaceOnUse" x="0" y="0" width="434" height="327">
<rect x="433.01" y="1.44729" width="324.86" height="432.244" transform="rotate(90 433.01 1.44729)" fill="url(#paint0_linear_37_90)" stroke="#6246E5" stroke-width="0.902388"/>
</mask>
<g mask="url(#mask0_37_90)">
<path d="M213.734 410.608C151.169 410.608 100.449 359.817 100.449 297.162C100.449 234.507 151.169 183.716 213.734 183.716C276.299 183.716 327.019 234.507 327.019 297.162C327.019 359.817 276.299 410.608 213.734 410.608Z" stroke="#6246E5" stroke-width="0.902388"/>
<path d="M225.706 415.104C155.703 415.104 98.9524 358.274 98.9524 288.17C98.9524 218.065 155.703 161.236 225.706 161.236C295.71 161.236 352.461 218.065 352.461 288.17C352.461 358.274 295.71 415.104 225.706 415.104Z" stroke="#6246E5" stroke-width="0.902388"/>
<path d="M235.434 419.6C158.818 419.6 96.7075 357.402 96.7075 280.677C96.7075 203.951 158.818 141.753 235.434 141.753C312.05 141.753 374.16 203.951 374.16 280.677C374.16 357.403 312.05 419.6 235.434 419.6Z" stroke="#6246E5" stroke-width="0.902388"/>
<path d="M249.651 422.597C167.25 422.597 100.449 355.703 100.449 273.184C100.449 190.664 167.25 123.77 249.651 123.77C332.053 123.77 398.853 190.664 398.853 273.184C398.853 355.703 332.053 422.597 249.651 422.597Z" stroke="#6246E5" stroke-width="0.902388"/>
<path d="M263.494 425.595C175.514 425.595 104.19 354.171 104.19 266.065C104.19 177.958 175.514 106.535 263.494 106.535C351.474 106.535 422.798 177.958 422.798 266.065C422.798 354.171 351.474 425.595 263.494 425.595Z" stroke="#6246E5" stroke-width="0.902388"/>
<path d="M279.208 429.341C182.549 429.341 104.19 350.873 104.19 254.076C104.19 157.279 182.549 78.8103 279.208 78.8103C375.866 78.8103 454.225 157.279 454.225 254.076C454.225 350.873 375.866 429.341 279.208 429.341Z" stroke="#6246E5" stroke-width="0.902388"/>
</g>
</g>
<defs>
<linearGradient id="paint0_linear_37_90" x1="664.504" y1="13.1485" x2="440.413" y2="437.811" gradientUnits="userSpaceOnUse">
<stop stop-color="#747DEF"/>
<stop offset="1" stop-color="#5E3BE1"/>
</linearGradient>
</defs>
</svg>
