<svg width="64" height="64" viewBox="0 0 64 64" fill="none" xmlns="http://www.w3.org/2000/svg">
<circle cx="32.0805" cy="32.3389" r="31.5836" fill="url(#paint0_linear_38_109)"/>
<path d="M47.9719 22.4039C48.5958 23.4845 48.5122 24.7711 47.7529 25.7614L31.0823 47.5154C30.3948 48.4124 29.2628 48.8698 28.1052 48.6476C26.9717 48.4296 26.0729 47.6033 25.761 46.492L23.2944 37.713L23.0375 36.7998L22.3751 36.1208L16.0057 29.5952C15.1992 28.7694 14.933 27.5779 15.3109 26.4872C15.685 25.409 16.6233 24.6267 17.78 24.4751L44.9548 20.915C46.192 20.7525 47.3481 21.3234 47.9719 22.4039Z" fill="white"/>
<path d="M23.2944 37.713L25.761 46.492C26.0729 47.6033 26.9717 48.4295 28.1053 48.6476C29.2628 48.8698 30.3948 48.4125 31.0823 47.5154L47.7529 25.7614C48.5122 24.7711 48.5958 23.4845 47.9719 22.4039L23.0375 36.7998L23.2944 37.713Z" fill="white"/>
<path d="M33.1842 30.9415C33.4379 31.3809 33.2877 31.9431 32.8478 32.1972L23.2944 37.7128L23.0375 36.7997L22.3752 36.1206L31.9285 30.605C32.3685 30.351 32.9305 30.502 33.1842 30.9415Z" fill="url(#paint1_linear_38_109)"/>
<path d="M23.2945 37.7131L32.8478 32.1975C33.2877 31.9435 33.438 31.3812 33.1843 30.9418L23.0376 36.7999L23.2945 37.7131Z" fill="url(#paint2_linear_38_109)"/>
<defs>
<linearGradient id="paint0_linear_38_109" x1="45.2975" y1="2.5276" x2="18.1512" y2="70.929" gradientUnits="userSpaceOnUse">
<stop stop-color="#747DEF"/>
<stop offset="1" stop-color="#5E3BE1"/>
</linearGradient>
<linearGradient id="paint1_linear_38_109" x1="29.7412" y1="31.9274" x2="30.7677" y2="33.9857" gradientUnits="userSpaceOnUse">
<stop stop-color="#747DEF"/>
<stop offset="1" stop-color="#5E3BE1"/>
</linearGradient>
<linearGradient id="paint2_linear_38_109" x1="30.1879" y1="32.7015" x2="30.7331" y2="33.7159" gradientUnits="userSpaceOnUse">
<stop stop-color="#747DEF"/>
<stop offset="1" stop-color="#5E3BE1"/>
</linearGradient>
</defs>
</svg>
