<svg width="56" height="56" viewBox="0 0 56 56" fill="none" xmlns="http://www.w3.org/2000/svg">
<g filter="url(#filter0_d_37_7)">
<path fill-rule="evenodd" clip-rule="evenodd" d="M28.2928 44.3075C38.5095 44.3075 46.7918 36.0252 46.7918 25.8085C46.7918 15.5918 38.5095 7.30957 28.2928 7.30957C18.0761 7.30957 9.79388 15.5918 9.79388 25.8085C9.79388 36.0252 18.0761 44.3075 28.2928 44.3075Z" fill="white"/>
</g>
<path d="M35.0607 21.3316C34.5238 21.5672 33.9517 21.7233 33.3552 21.7991C33.9688 21.4327 34.4372 20.857 34.6573 20.1631C34.0852 20.5042 33.4536 20.7451 32.7804 20.8795C32.2371 20.3011 31.4629 19.9429 30.6182 19.9429C28.9795 19.9429 27.6602 21.273 27.6602 22.9036C27.6602 23.1382 27.6801 23.3638 27.7288 23.5786C25.268 23.4586 23.0905 22.2792 21.6278 20.4825C21.3724 20.9256 21.2226 21.4327 21.2226 21.9787C21.2226 23.0038 21.7505 23.9125 22.5374 24.4386C22.0618 24.4295 21.5953 24.2915 21.2 24.074C21.2 24.083 21.2 24.0948 21.2 24.1065C21.2 25.5449 22.226 26.7397 23.5715 27.0149C23.3306 27.0808 23.068 27.1123 22.7954 27.1123C22.6059 27.1123 22.4146 27.1015 22.2351 27.0618C22.6186 28.234 23.7069 29.0958 25.0009 29.1238C23.9938 29.9116 22.7151 30.3862 21.3309 30.3862C21.0881 30.3862 20.8553 30.3754 20.6225 30.3456C21.9337 31.1911 23.4876 31.6739 25.1633 31.6739C30.6101 31.6739 33.588 27.162 33.588 23.251C33.588 23.1202 33.5835 22.9938 33.5772 22.8684C34.1646 22.4515 34.6582 21.9308 35.0607 21.3316Z" fill="#080809"/>
<defs>
<filter id="filter0_d_37_7" x="0.770005" y="0.0904671" width="55.0457" height="55.0456" filterUnits="userSpaceOnUse" color-interpolation-filters="sRGB">
<feFlood flood-opacity="0" result="BackgroundImageFix"/>
<feColorMatrix in="SourceAlpha" type="matrix" values="0 0 0 0 0 0 0 0 0 0 0 0 0 0 0 0 0 0 127 0" result="hardAlpha"/>
<feOffset dy="1.80478"/>
<feGaussianBlur stdDeviation="4.51194"/>
<feColorMatrix type="matrix" values="0 0 0 0 0 0 0 0 0 0 0 0 0 0 0 0 0 0 0.1 0"/>
<feBlend mode="normal" in2="BackgroundImageFix" result="effect1_dropShadow_37_7"/>
<feBlend mode="normal" in="SourceGraphic" in2="effect1_dropShadow_37_7" result="shape"/>
</filter>
</defs>
</svg>
