<svg width="16" height="13" viewBox="0 0 16 13" fill="none" xmlns="http://www.w3.org/2000/svg">
<path d="M15.0607 2.33165C14.5238 2.56717 13.9517 2.72328 13.3552 2.79908C13.9688 2.43271 14.4372 1.85699 14.6573 1.16305C14.0852 1.50416 13.4536 1.74509 12.7804 1.87955C12.2371 1.30112 11.4629 0.942871 10.6182 0.942871C8.97951 0.942871 7.66022 2.27299 7.66022 3.90361C7.66022 4.13823 7.68007 4.36382 7.7288 4.57859C5.26799 4.45857 3.09053 3.27915 1.62776 1.4825C1.37238 1.92557 1.22259 2.43271 1.22259 2.97866C1.22259 4.00377 1.75048 4.91248 2.53736 5.43857C2.06181 5.42954 1.59527 5.29148 1.20003 5.074C1.20003 5.08303 1.20003 5.09476 1.20003 5.10649C1.20003 6.5449 2.22604 7.73966 3.5715 8.01489C3.33056 8.08076 3.06797 8.11234 2.79545 8.11234C2.60595 8.11234 2.41464 8.10151 2.23506 8.06181C2.61858 9.23401 3.70686 10.0958 5.00088 10.1238C3.99382 10.9116 2.71514 11.3862 1.33087 11.3862C1.08813 11.3862 0.855314 11.3754 0.622498 11.3456C1.93367 12.1911 3.48758 12.6739 5.16331 12.6739C10.6101 12.6739 13.588 8.16197 13.588 4.25103C13.588 4.12018 13.5835 3.99384 13.5772 3.86841C14.1646 3.45151 14.6582 2.93083 15.0607 2.33165Z" fill="#080809"/>
</svg>
