<svg width="16" height="16" viewBox="0 0 16 16" fill="none" xmlns="http://www.w3.org/2000/svg">
<path d="M15.3012 1.77026L9.09729 15.3061C9.04538 15.4195 8.95735 15.5124 8.84698 15.5705C8.7366 15.6285 8.61011 15.6483 8.48727 15.6269C8.36444 15.6054 8.25219 15.5438 8.16808 15.4517C8.08398 15.3596 8.03276 15.2423 8.02243 15.118L7.49792 8.8257L1.20563 8.30118C1.08135 8.29086 0.964002 8.23964 0.871932 8.15553C0.779862 8.07143 0.718262 7.95918 0.696767 7.83634C0.675271 7.71351 0.695093 7.58701 0.753131 7.47664C0.811169 7.36626 0.90415 7.27824 1.01753 7.22633L14.5534 1.02241C14.658 0.974453 14.7748 0.959663 14.8881 0.980026C15.0014 1.00039 15.1057 1.05493 15.1871 1.13632C15.2685 1.21771 15.3231 1.32206 15.3434 1.43535C15.3638 1.54864 15.349 1.66545 15.301 1.77009L15.3012 1.77026Z" fill="#080809"/>
</svg>
