<svg width="84" height="71" viewBox="0 0 84 71" fill="none" xmlns="http://www.w3.org/2000/svg">
<path d="M83.814 54.3754C83.814 63.3461 76.5418 70.6183 67.571 70.6183L43.2065 70.6183C40.7147 70.6183 38.6946 68.5983 38.6946 66.1064L38.6946 35.4252C38.6946 30.4415 42.7347 26.4013 47.7185 26.4013L79.3021 26.4013C81.7939 26.4013 83.814 28.4214 83.814 30.9133L83.814 54.3754Z" fill="#FFF1DA"/>
<path d="M22.0248 45.9447L20.321 45.1291L10.1992 60.0948H21.4952L22.5838 59.3851V46.4569L22.0248 45.9447Z" fill="#407093"/>
<path d="M20.475 45.2029L16.6443 43.3689H15.9223L5.09027 59.3851L5.73514 60.0948H10.4032L20.475 45.2029Z" fill="#365E7D"/>
<path d="M24.6174 59.385H9.68061C9.00205 59.385 8.45193 59.935 8.45193 60.6137V62.1706C8.45193 62.849 9.00193 63.399 9.68036 63.3992H24.6174C25.2959 63.3992 25.846 62.8492 25.846 62.1706V60.6137C25.846 59.935 25.2959 59.385 24.6174 59.385V59.385Z" fill="#4A80AA"/>
<path d="M8.70621 62.1706V60.6136C8.70621 59.9351 9.25633 59.385 9.93488 59.385H2.02297C1.34442 59.385 0.794296 59.935 0.794296 60.6136V62.1706C0.794296 62.8492 1.34442 63.3992 2.02297 63.3992H9.93476C9.2562 63.3992 8.70621 62.8492 8.70621 62.1706V62.1706Z" fill="#407093"/>
<path d="M19.9608 36.312C19.501 37.2604 19.2412 38.3239 19.2412 39.449C19.2412 42.5233 21.1663 45.1458 23.8758 46.1833C25.0391 45.8188 26.0727 45.1614 26.8892 44.2958V42.7249L19.9608 36.312Z" fill="#4A80AA"/>
<path d="M19.3625 39.4736C19.3625 38.3746 19.6166 37.3358 20.0666 36.4096L17.8519 34.3597H16.9532C15.5943 35.6416 14.7447 37.4578 14.7447 39.4735C14.7447 43.3565 17.8925 46.5043 21.7755 46.5043C22.5843 46.5043 23.36 46.3655 24.083 46.1139C21.3352 45.158 19.3625 42.547 19.3625 39.4736V39.4736Z" fill="#407093"/>
<path d="M60.1823 1.06652C59.0697 -0.0460582 57.2659 -0.0460582 56.1534 1.06652L53.4346 3.78529V4.12987L56.828 7.66734L57.4635 7.81416L60.1821 5.09539C61.2949 3.98293 61.2949 2.1791 60.1823 1.06652V1.06652Z" fill="#FFD086"/>
<path d="M60.9339 2.41129C60.8152 1.91878 60.5667 1.45107 60.1823 1.06652C59.0697 -0.0460582 57.2659 -0.0460582 56.1534 1.06652L53.4346 3.78529V4.12987L55.2338 6.00539C56.3064 4.88923 57.3713 3.78776 57.919 3.2401C58.832 2.32727 60.1654 2.32024 60.9339 2.41129V2.41129Z" fill="#FFC365"/>
<path d="M50.8745 8.30869C50.8433 8.30869 50.8117 8.30709 50.78 8.304L19.3621 5.21153C18.8381 5.15996 18.4553 4.69349 18.5069 4.16952C18.5585 3.64556 19.0252 3.26298 19.5489 3.31418L50.9668 6.40652C51.4907 6.45809 51.8736 6.92457 51.822 7.44853C51.7735 7.94091 51.3589 8.30869 50.8745 8.30869Z" fill="#365E7D"/>
<path d="M28.4488 14.1903C28.026 14.1903 27.6397 13.9068 27.5275 13.4787C27.3938 12.9694 27.6984 12.4483 28.2076 12.3147L50.632 6.43287C51.1412 6.29951 51.6624 6.60387 51.7959 7.11315C51.9295 7.62231 51.625 8.14344 51.1158 8.27705L28.6914 14.1589C28.6102 14.1801 28.5287 14.1903 28.4488 14.1903V14.1903Z" fill="#407093"/>
<path d="M56.9648 42.7671C56.48 42.7671 56.0654 42.3989 56.0171 41.9064L52.9439 10.4692C52.8927 9.9454 53.2759 9.47905 53.7999 9.42773C54.3238 9.37887 54.7901 9.75985 54.8413 10.2838L57.9145 41.721C57.9657 42.2448 57.5825 42.7112 57.0585 42.7625C57.0271 42.7655 56.9957 42.7671 56.9648 42.7671Z" fill="#365E7D"/>
<path d="M47.9217 33.8438C47.8409 33.8438 47.7588 33.8333 47.6768 33.8117C47.1679 33.6767 46.8648 33.1549 46.9998 32.646L52.9682 10.1349C53.103 9.62591 53.6248 9.32327 54.1338 9.45775C54.6427 9.59272 54.9459 10.1146 54.8109 10.6235L48.8425 33.1345C48.7293 33.5616 48.3436 33.8438 47.9217 33.8438V33.8438Z" fill="#407093"/>
<path d="M50.7025 6.51656L53.4282 3.79086L57.4565 7.81918L54.7308 10.5449L50.7025 6.51656Z" fill="#FFC365"/>
<path d="M52.7726 8.57531C53.4277 7.88936 54.4507 6.81947 55.4402 5.79078L53.4348 3.78523L50.7086 6.51128L52.7726 8.57531Z" fill="#FFA90F"/>
<path d="M55.3444 12.1002C55.1005 12.1002 54.8565 12.007 54.6704 11.821L49.428 6.57863C49.0556 6.20629 49.0556 5.60287 49.428 5.23041C49.8002 4.85832 50.4037 4.85832 50.776 5.23041L56.0185 10.4728C56.3909 10.8451 56.3909 11.4485 56.0185 11.821C55.8324 12.0072 55.5885 12.1002 55.3444 12.1002Z" fill="#4A80AA"/>
<path d="M55.9597 44.483L24.0415 12.288C19.8098 21.8412 19.0749 32.0966 22.2429 40.9401C30.992 48.8323 44.0616 50.0442 56.0934 45.0831L55.9597 44.483Z" fill="#B5DCFF"/>
<path d="M24.2115 12.4594L16.8985 5.08308L16.1657 5.15538C11.0134 17.651 12.5178 31.2668 21.2499 39.9989C21.7788 40.5278 22.3261 41.0297 22.8895 41.5058C19.2086 32.6727 19.8068 22.167 24.2115 12.4594V12.4594Z" fill="#8BCAFF"/>
<path d="M58.8765 42.1947L26.5047 9.82281C26.1861 9.87192 25.8794 10.0168 25.6341 10.262L24.2261 11.6702C23.9237 11.9726 23.7733 12.3675 23.769 12.7639L56.0382 45.033C56.518 45.5128 57.2959 45.5128 57.7757 45.033L58.8766 43.9321C59.3563 43.4524 59.3563 42.6745 58.8765 42.1947Z" fill="#DBEDFF"/>
<path d="M24.2747 11.6943L25.6534 10.3156C25.9073 10.0617 26.2279 9.91637 26.5588 9.87702L19.0543 2.37248C18.5745 1.89268 17.7966 1.89268 17.3167 2.37248L16.2157 3.47346C15.7359 3.95326 15.7359 4.73113 16.2157 5.21092L23.8257 12.8209C23.8157 12.4143 23.9644 12.0046 24.2747 11.6943V11.6943Z" fill="#B5DCFF"/>
</svg>
